<?xml version="1.0" standalone="no"?>
<!DOCTYPE svg PUBLIC "-//W3C//DTD SVG 1.1//EN" "http://www.w3.org/Graphics/SVG/1.1/DTD/svg11.dtd" >
<svg>
<metadata>
Created by FontForge 20090914 at Mon Jun  1 16:20:21 2020
 By www-data
&#194;&#169; 1987, 1991, 1993, 2002 Adobe Systems Incorporated. All rights reserved.
</metadata>
<defs>
<font id="FuturaStd-Bold" horiz-adv-x="686" >
  <font-face 
    font-family="Futura Std Book"
    font-weight="700"
    font-stretch="normal"
    units-per-em="1000"
    panose-1="2 11 8 2 2 2 4 2 2 4"
    ascent="825"
    descent="-175"
    x-height="513"
    cap-height="754"
    bbox="-171 -263.999 1441 1040"
    underline-thickness="50"
    underline-position="-200"
    unicode-range="U+0020-U+FB02"
  />
<missing-glyph horiz-adv-x="500" 
d="M0 0v700h500v-700h-500zM250 395l170 255h-340zM280 350l170 -255v510zM80 50h340l-170 255zM50 605v-510l170 255z" />
    <glyph glyph-name="f_i" unicode="fi" horiz-adv-x="679" 
d="M254 363v-363.001h-182v363h-64v150h64v65c0 42.667 3 76.834 9 102.501s20.333 51.5 43 77.5c46.667 54.667 106.334 82 179.001 82c28.667 0 54.667 -6 78 -18v-157c-26.667 11.333 -48 17 -64 17c-22.667 0 -38.834 -6.83301 -48.501 -20.5s-14.5 -35.5 -14.5 -65.5
v-83h127v-150h-127zM619 512.999v-513h-182v513h182zM528 811.999c28 0 52 -10 72 -30s30 -44 30 -72s-10 -52 -30 -72s-44 -30 -72 -30s-52 10 -72 30s-30 44 -30 72s10 52 30 72s44 30 72 30z" />
    <glyph glyph-name="f_l" unicode="fl" horiz-adv-x="690" 
d="M630 830v-830h-182v830h182zM254 363v-363.001h-182v363h-64v150h64v65c0 42.667 3 76.834 9 102.501s20.333 51.5 43 77.5c46.667 54.667 106.334 82 179.001 82c28.667 0 54.667 -6 78 -18v-157c-26.667 11.333 -48 17 -64 17
c-22.667 0 -38.834 -6.83301 -48.501 -20.5s-14.5 -35.5 -14.5 -65.5v-83h127v-150h-127z" />
    <glyph glyph-name=".notdef" horiz-adv-x="500" 
d="M0 0v700h500v-700h-500zM250 395l170 255h-340zM280 350l170 -255v510zM80 50h340l-170 255zM50 605v-510l170 255z" />
    <glyph glyph-name="space" unicode=" " horiz-adv-x="343" 
 />
    <glyph glyph-name="exclam" unicode="!" horiz-adv-x="384" 
d="M192 214c32.667 0 60.334 -11.333 83.001 -34s34 -50.334 34 -83.001c0 -32 -11.333 -59.5 -34 -82.5s-50.334 -34.5 -83.001 -34.5s-60.334 11.5 -83.001 34.5s-34 50.5 -34 82.5c0 32.667 11.333 60.334 34 83.001s50.334 34 83.001 34zM98 256v498h189v-498h-189z" />
    <glyph glyph-name="quotedbl" unicode="&#x22;" horiz-adv-x="500" 
d="M47 754h170l-27 -331h-116zM283 754h170l-27 -331h-116z" />
    <glyph glyph-name="numbersign" unicode="#" 
d="M265 726h106l-39 -203h101l39 203h105l-39 -203h80v-113h-98l-24 -124h94v-113h-118l-33 -173h-106l33 173h-101l-33 -173h-106l33 173h-91v113h113l24 124h-96v113h117zM311 410l-24 -124h102l26 124h-104z" />
    <glyph glyph-name="dollar" unicode="$" 
d="M68 87l82.002 151.001c25.333 -23.333 54.333 -43.166 87 -59.499s64 -24.5 94 -24.5c23.333 0 44.833 6.5 64.5 19.5s29.5 30.833 29.5 53.5c0 10.667 -2.66699 20 -8 28s-13.833 15.167 -25.5 21.5s-22.667 11.5 -33 15.5s-25.333 9 -45 15s-34.834 11 -45.501 15
c-48 18 -86.167 41.333 -114.5 70s-42.5 70.667 -42.5 126c0 60.667 19.167 114 57.5 160s87.166 71 146.499 75v121h93v-121c72 -6.66699 132.667 -26 182 -58l-74 -145c-40.667 32.667 -83.334 49 -128.001 49c-24 0 -44.167 -4.66699 -60.5 -14s-24.5 -23.333 -24.5 -42
c0 -10.667 3 -20.334 9 -29.001s15.333 -16.334 28 -23.001s22.5 -11.5 29.5 -14.5s17.5 -6.83301 31.5 -11.5c34.667 -11.333 62.5 -21.833 83.5 -31.5s43 -22.834 66 -39.501s40 -37.167 51 -61.5s16.5 -53.166 16.5 -86.499c0 -128 -70 -209.333 -210 -244v-125h-93v119
c-42 0 -85 8.33301 -129 25c-53.333 20.667 -92.666 42.667 -117.999 66z" />
    <glyph glyph-name="percent" unicode="%" horiz-adv-x="975" 
d="M225 764c58.667 0 107.667 -16.167 147 -48.5s59 -77.166 59 -134.499c0 -58.667 -19.333 -104.334 -58 -137.001s-88 -49 -148 -49s-109.333 16.333 -148 49s-58 78.334 -58 137.001c0 57.333 19.667 102.166 59 134.499s88.333 48.5 147 48.5zM225 664
c-23.333 0 -43.333 -8.33301 -60 -25s-25 -36.667 -25 -60s8.33301 -43.166 25 -59.499s36.667 -24.5 60 -24.5s43.333 8.16699 60 24.5s25 36.166 25 59.499s-8.33301 43.333 -25 60s-36.667 25 -60 25zM750 359c58.667 0 107.667 -16.167 147 -48.5
s59 -77.166 59 -134.499c0 -58.667 -19.333 -104.334 -58 -137.001s-88 -49 -148 -49s-109.333 16.333 -148 49s-58 78.334 -58 137.001c0 57.333 19.667 102.166 59 134.499s88.333 48.5 147 48.5zM750 259c-23.333 0 -43.333 -8.33301 -60 -25s-25 -36.667 -25 -60
s8.33301 -43.166 25 -59.499s36.667 -24.5 60 -24.5s43.333 8.16699 60 24.5s25 36.166 25 59.499s-8.33301 43.333 -25 60s-36.667 25 -60 25zM657 754h98l-438 -754h-98z" />
    <glyph glyph-name="ampersand" unicode="&#x26;" horiz-adv-x="848" 
d="M431 187l-119 127.999c-47.333 -29.333 -71 -59.333 -71 -90c0 -21.333 8.66699 -38.166 26 -50.499s37 -18.5 59 -18.5c34.667 0 69.667 10.333 105 31zM393 478.999c46.667 26 69.999 56.665 69.999 91.998c0 19.333 -6.16699 35.833 -18.5 49.5
s-28.166 20.5 -47.499 20.5c-18 0 -33 -5.83301 -45 -17.5s-18 -26.5 -18 -44.5c0 -11.333 4 -24.166 12 -38.499s14.333 -24.166 19 -29.499zM602.999 -0.00292969l-64.999 69.9951c-88 -60 -174 -90 -258 -90c-68 0 -125.333 19.333 -172 58s-70 91.334 -70 158.001
c0 52.667 13.833 95 41.5 127s67.834 59.667 120.501 83l18 8l-16 22c-0.666992 0.666992 -3.16699 3.83398 -7.5 9.50098s-6.83301 9.33398 -7.5 11.001s-3 5.16699 -7 10.5s-6.5 9.16602 -7.5 11.499s-3 6.33301 -6 12s-5.16699 10.167 -6.5 13.5s-3 7.83301 -5 13.5
s-3.33301 10.834 -4 15.501s-1.33398 10 -2.00098 16s-1 12 -1 18c0 62.667 23.167 112.834 69.5 150.501s101.166 56.5 164.499 56.5s118.5 -18.667 165.5 -56s70.5 -87 70.5 -149c0 -43.333 -12.167 -78.666 -36.5 -105.999s-58.833 -52.333 -103.5 -75l95 -100
c42.667 38 75.667 73.667 99 107l111 -106l-95 -102l-9 -9l169 -178h-245z" />
    <glyph glyph-name="quotesingle" unicode="'" horiz-adv-x="250" 
d="M40 754h170l-27 -331h-116z" />
    <glyph glyph-name="parenleft" unicode="(" horiz-adv-x="352" 
d="M194 790l109 -62.001c-76.667 -123.333 -115 -274.666 -115 -453.999c0 -78 9.83301 -158.667 29.5 -242s48.167 -153.333 85.5 -210l-109 -62c-48.667 64 -85 144.167 -109 240.5s-36 191.5 -36 285.5c0 87.333 12.5 177 37.5 269s60.833 170.333 107.5 235z" />
    <glyph glyph-name="parenright" unicode=")" horiz-adv-x="352" 
d="M49 728l109 62.001c46.667 -64.667 82.5 -143 107.5 -235s37.5 -181.667 37.5 -269c0 -94 -12 -189.167 -36 -285.5s-60.333 -176.5 -109 -240.5l-109 62c37.333 56.667 65.833 126.667 85.5 210s29.5 164 29.5 242c0 179.333 -38.333 330.666 -115 453.999z" />
    <glyph glyph-name="asterisk" unicode="*" horiz-adv-x="483" 
d="M196 754h90l-5 -107l89 56l45 -76l-95 -50l94 -52l-45 -75l-88 57l4 -101h-90l6 100l-85 -54l-45 76l90 50l-93 51l46 76l87 -55z" />
    <glyph glyph-name="plus" unicode="+" 
d="M268 332v181h150v-181h181v-150h-181v-182h-150v182h-181v150h181z" />
    <glyph glyph-name="comma" unicode="," horiz-adv-x="343" 
d="M152 191h171l-184 -332h-117z" />
    <glyph glyph-name="hyphen" unicode="-" horiz-adv-x="392" 
d="M53 396h286v-150h-286v150z" />
    <glyph glyph-name="period" unicode="." horiz-adv-x="343" 
d="M172 214c32.667 0 60.334 -11.333 83.001 -34s34 -50.334 34 -83.001c0 -32 -11.333 -59.5 -34 -82.5s-50.334 -34.5 -83.001 -34.5s-60.334 11.5 -83.001 34.5s-34 50.5 -34 82.5c0 32.667 11.333 60.334 34 83.001s50.334 34 83.001 34z" />
    <glyph glyph-name="slash" unicode="/" horiz-adv-x="579" 
d="M409 830h143l-382 -923h-143z" />
    <glyph glyph-name="zero" unicode="0" 
d="M343 784c54 0 101.998 -11.833 143.998 -35.5s75.5 -55.334 100.5 -95.001s43.833 -83 56.5 -130s19 -95.833 19 -146.5c0 -40 -3.83301 -79.167 -11.5 -117.5s-19.834 -75.166 -36.501 -110.499s-37.167 -66.166 -61.5 -92.499s-54.666 -47.333 -90.999 -63
s-76.166 -23.5 -119.499 -23.5s-83.166 7.83301 -119.499 23.5s-66.666 36.667 -90.999 63s-44.833 57.166 -61.5 92.499s-28.834 72.166 -36.501 110.499s-11.5 77.5 -11.5 117.5c0 50.667 6.33301 99.5 19 146.5s31.5 90.333 56.5 130s58.5 71.334 100.5 95.001
s90 35.5 144 35.5zM342.998 611c-23.333 0 -43.833 -8.5 -61.5 -25.5s-30.834 -38.5 -39.501 -64.5s-14.834 -51 -18.501 -75s-5.5 -46.667 -5.5 -68s1.83301 -44.166 5.5 -68.499s9.83398 -49.666 18.501 -75.999s21.834 -48 39.501 -65s38.167 -25.5 61.5 -25.5
s43.833 8.5 61.5 25.5s30.834 38.667 39.501 65s14.834 51.666 18.501 75.999s5.5 47.166 5.5 68.499s-1.83301 44 -5.5 68s-9.83398 49 -18.501 75s-21.834 47.5 -39.501 64.5s-38.167 25.5 -61.5 25.5z" />
    <glyph glyph-name="one" unicode="1" 
d="M269 588h-108v166h304v-754h-196v588z" />
    <glyph glyph-name="two" unicode="2" 
d="M392 166l247.002 -0.000976562v-166h-606l308 335c57.333 62.667 86 124.334 86 185.001c0 25.333 -8.16699 48 -24.5 68s-36.833 30 -61.5 30c-25.333 0 -45.333 -8.66699 -60 -26s-22 -39.333 -22 -66c0 -10 1 -20.667 3 -32h-216
c3.33301 87.333 31.166 157.5 83.499 210.5s122.5 79.5 210.5 79.5c81.333 0 150.166 -24.667 206.499 -74s84.5 -114 84.5 -194c0 -50.667 -9.83301 -94 -29.5 -130s-50.5 -73 -92.5 -111z" />
    <glyph glyph-name="three" unicode="3" 
d="M255 537l-182 0.00195312c7.33301 75.333 36.666 136 87.999 182c48.667 43.333 112.667 65 192 65c70 0 127.667 -19.333 173 -58s68 -92.334 68 -161.001c0 -32 -6.66699 -62.167 -20 -90.5s-33 -49.833 -59 -64.5c38 -10 68 -33.833 90 -71.5s33 -77.167 33 -118.5
c0 -52.667 -14.167 -98.334 -42.5 -137.001s-64.333 -67.167 -108 -85.5s-91.167 -27.5 -142.5 -27.5c-94 0 -169 28.333 -225 85c-24 24.667 -44.5 54.667 -61.5 90s-25.167 68.666 -24.5 99.999h200c0 -30.667 9.83301 -56.167 29.5 -76.5s44.834 -30.5 75.501 -30.5
s55.834 9.33301 75.501 28s29.5 43 29.5 73c0 28 -10.333 51.833 -31 71.5s-45 29.5 -73 29.5c-8 0 -19.333 -2 -34 -6v131h20c25.333 0 46 7.5 62 22.5s24 35.167 24 60.5c0 22.667 -7.33301 41 -22 55s-33 21 -55 21c-24.667 0 -44.334 -8.16699 -59.001 -24.5
s-21.667 -37.166 -21 -62.499z" />
    <glyph glyph-name="four" unicode="4" 
d="M564 306h91v-150h-91v-156h-182v156h-366v125l291 473h257v-448zM382 306v290h-2l-176 -290h178z" />
    <glyph glyph-name="five" unicode="5" 
d="M563 588l-261 -0.000976562l-13 -86l62 5c76 6 139.5 -17.667 190.5 -71s76.5 -119.666 76.5 -198.999c0 -82.667 -32.333 -150.667 -97 -204c-52.667 -42 -126 -63 -220 -63c-93.333 0 -175.333 22.667 -246 68l29 185c64.667 -58 134.667 -87 210 -87
c32 0 60 10.5 84 31.5s36 47.5 36 79.5c0 42 -16.5 74 -49.5 96s-71.5 33 -115.5 33c-52 0 -100 -10.333 -144 -31l66 409h392v-166z" />
    <glyph glyph-name="six" unicode="6" 
d="M306 754l222.002 0.000976562l-214 -255l2 -2c34.667 15.333 69.667 23 105 23c71.333 0 129.5 -26.167 174.5 -78.5s67.5 -114.5 67.5 -186.5c0 -88.667 -31.333 -158.334 -94 -209.001s-139.334 -76 -230.001 -76c-88.667 0 -160.334 21.667 -215.001 65
c-30.667 25.333 -55.167 56.5 -73.5 93.5s-27.5 74.833 -27.5 113.5c0 94.667 40.333 194.667 121 300zM338.002 124.001c34 0 62.667 12.167 86 36.5s35 53.833 35 88.5c0 34 -11.667 63 -35 87s-52 36 -86 36s-63.167 -12 -87.5 -36s-36.5 -53 -36.5 -87
c0 -34.667 12.167 -64.167 36.5 -88.5s53.5 -36.5 87.5 -36.5z" />
    <glyph glyph-name="seven" unicode="7" 
d="M386 588h-315v166h619l-433 -754h-215z" />
    <glyph glyph-name="eight" unicode="8" 
d="M343 648c-22.667 0 -42.167 -8.33301 -58.5 -25s-24.5 -36.667 -24.5 -60s8.16699 -43.333 24.5 -60s35.833 -25 58.5 -25s42.167 8.33301 58.5 25s24.5 36.667 24.5 60s-8.16699 43.333 -24.5 60s-35.833 25 -58.5 25zM343 317
c-24.667 0 -45.834 -9.16699 -63.501 -27.5s-26.5 -40.5 -26.5 -66.5c0 -25.333 8.83301 -47 26.5 -65s38.834 -27 63.501 -27s45.834 9 63.501 27s26.5 39.667 26.5 65c0 26 -8.83301 48.167 -26.5 66.5s-38.834 27.5 -63.501 27.5zM343 784
c70 0 130.333 -18.833 181 -56.5s76 -90.5 76 -158.5c0 -39.333 -11.167 -74.833 -33.5 -106.5s-50.833 -53.167 -85.5 -64.5v-2c46 -15.333 82.5 -40.166 109.5 -74.499s40.5 -75.5 40.5 -123.5c0 -49.333 -15.333 -91.833 -46 -127.5s-67.167 -61.334 -109.5 -77.001
s-86.5 -23.5 -132.5 -23.5s-90.167 7.83301 -132.5 23.5s-78.833 41.334 -109.5 77.001s-46 78.167 -46 127.5c0 48 13.5 89.167 40.5 123.5s63.5 59.166 109.5 74.499v2c-34.667 11.333 -63.167 32.833 -85.5 64.5s-33.5 67.167 -33.5 106.5c0 68 25.333 120.833 76 158.5
s111 56.5 181 56.5z" />
    <glyph glyph-name="nine" unicode="9" 
d="M381 0l-223.001 -0.00195312l215 254l-2 2c-34.667 -15.333 -70 -23 -106 -23c-71.333 0 -129.5 26.167 -174.5 78.5s-67.5 114.833 -67.5 187.5c0 88.667 31.333 158.334 94 209.001s139.334 76 230.001 76c90 0 161.667 -21.667 215 -65
c30.667 -24.667 55.167 -55.667 73.5 -93s27.5 -75.666 27.5 -114.999c0 -93.333 -40.333 -193.333 -121 -300zM347.999 628.998c-34 0 -62.667 -12 -86 -36s-35 -53.333 -35 -88s11.667 -64 35 -88s52 -36 86 -36c34.667 0 64.167 12 88.5 36s36.5 53.333 36.5 88
s-12.167 64 -36.5 88s-53.833 36 -88.5 36z" />
    <glyph glyph-name="colon" unicode=":" horiz-adv-x="343" 
d="M172 214c32.667 0 60.334 -11.333 83.001 -34s34 -50.334 34 -83.001c0 -32 -11.333 -59.5 -34 -82.5s-50.334 -34.5 -83.001 -34.5s-60.334 11.5 -83.001 34.5s-34 50.5 -34 82.5c0 32.667 11.333 60.334 34 83.001s50.334 34 83.001 34zM172 551
c32.667 0 60.334 -11.333 83.001 -34s34 -50.334 34 -83.001c0 -32 -11.333 -59.5 -34 -82.5s-50.334 -34.5 -83.001 -34.5s-60.334 11.5 -83.001 34.5s-34 50.5 -34 82.5c0 32.667 11.333 60.334 34 83.001s50.334 34 83.001 34z" />
    <glyph glyph-name="semicolon" unicode=";" horiz-adv-x="343" 
d="M138 191h171l-184 -332h-117zM218 551c32.667 0 60.334 -11.333 83.001 -34s34 -50.334 34 -83.001c0 -32 -11.333 -59.5 -34 -82.5s-50.334 -34.5 -83.001 -34.5s-60.334 11.5 -83.001 34.5s-34 50.5 -34 82.5c0 32.667 11.333 60.334 34 83.001s50.334 34 83.001 34z
" />
    <glyph glyph-name="less" unicode="&#x3c;" 
d="M99 197v120l489 182v-150l-274 -91v-2l274 -91v-150z" />
    <glyph glyph-name="equal" unicode="=" 
d="M87 452h512v-150h-512v150zM87 212h512v-150h-512v150z" />
    <glyph glyph-name="greater" unicode="&#x3e;" 
d="M588 317v-120l-489 -182v150l274 91v2l-274 91v150z" />
    <glyph glyph-name="question" unicode="?" horiz-adv-x="595" 
d="M186 252l-0.00195312 193.997c15.333 -3.33301 29.333 -5 42 -5c32 0 61.5 8.83301 88.5 26.5s40.5 41.834 40.5 72.501c0 20.667 -7 38.334 -21 53.001s-31.333 22 -52 22c-22 0 -39.167 -7 -51.5 -21s-18.5 -32.333 -18.5 -55h-199
c0.666992 72.667 27.834 130 81.501 172s117.834 63 192.501 63c68.667 0 127 -20.667 175 -62c26 -21.333 46.833 -47.5 62.5 -78.5s23.5 -62.5 23.5 -94.5c0 -54 -16.5 -99.167 -49.5 -135.5s-76.833 -63.166 -131.5 -80.499v-71h-183zM280.998 213.997
c32.667 0 60.334 -11.333 83.001 -34s34 -50.334 34 -83.001c0 -32 -11.333 -59.5 -34 -82.5s-50.334 -34.5 -83.001 -34.5s-60.334 11.5 -83.001 34.5s-34 50.5 -34 82.5c0 32.667 11.333 60.334 34 83.001s50.334 34 83.001 34z" />
    <glyph glyph-name="at" unicode="@" horiz-adv-x="740" 
d="M280 354c0 -26 6.83301 -47.833 20.5 -65.5s32.167 -26.5 55.5 -26.5c28 0 49.833 11 65.5 33s25.167 47.667 28.5 77c3.33301 28.667 -1.66699 52 -15 70s-32.333 27 -57 27c-27.333 0 -50.5 -12 -69.5 -36s-28.5 -50.333 -28.5 -79zM592 570l-50.002 -260
c-6.66699 -34 -7.66699 -54.333 -3 -61c3.33301 -4 8.33301 -5.66699 15 -5c19.333 2 39.833 21.167 61.5 57.5s33.834 75.166 36.501 116.499c4.66699 81.333 -18.833 145.333 -70.5 192s-117.5 70 -197.5 70c-83.333 0 -151.666 -28.5 -204.999 -85.5
s-80 -129.5 -80 -217.5c0 -90.667 28.5 -163.834 85.5 -219.501s129.167 -83.5 216.5 -83.5c76.667 0 136.334 13.333 179.001 40l82 -66c-88 -45.333 -177.667 -68 -269 -68c-108.667 0 -200.5 37.833 -275.5 113.5s-112.5 170.167 -112.5 283.5
c0 112.667 36.833 207 110.5 283s164.167 114 271.5 114c92.667 0 171 -29 235 -87c74.667 -66 112 -144 112 -234c0 -87.333 -20.667 -158.333 -62 -213c-46 -61.333 -97.333 -90.666 -154 -87.999c-14 0.666992 -26.833 6.5 -38.5 17.5s-19.5 24.5 -23.5 40.5
c-33.333 -38.667 -76 -58 -128 -58c-44.667 0 -83.834 18.333 -117.501 55s-50.5 80.334 -50.5 131.001c0 64 19 120.167 57 168.5s87 72.5 147 72.5c53.333 0 94.333 -20.667 123 -62l10 53h95z" />
    <glyph glyph-name="A" unicode="A" horiz-adv-x="781" 
d="M526 131h-270l-52 -131h-208l290 754h214l284 -754h-209zM473 281l-80 240h-2l-81 -240h163z" />
    <glyph glyph-name="B" unicode="B" horiz-adv-x="677" 
d="M260 312l0.00292969 -162h25h32.5c5.66699 0 16.5 0.666992 32.5 2s27.833 3.66602 35.5 6.99902s16.667 7.83301 27 13.5s17.666 13.334 21.999 23.001s6.5 21.167 6.5 34.5c0 10 -1 19 -3 27s-5.5 14.667 -10.5 20l-13.5 14.5c-4 4.33301 -10.5 7.66602 -19.5 9.99902
s-15.833 4.33301 -20.5 6s-12.834 2.83398 -24.501 3.50098s-19.334 1 -23.001 1h-24.5h-22h-20zM366.003 0h-302.001v754h280c149.333 0 224 -65.333 224 -196c0 -74.667 -27.667 -126 -83 -154v-2c102.667 -13.333 154 -77.333 154 -192c0 -38 -7.66699 -71 -23 -99
s-36.166 -49.833 -62.499 -65.5s-55 -27.167 -86 -34.5s-64.833 -11 -101.5 -11zM260.002 604l0.00195312 -145.998h22c32 0 57.667 5 77 15s29 29.333 29 58c0 16.667 -3.16699 30.167 -9.5 40.5s-15.833 17.666 -28.5 21.999s-24.334 7.16602 -35.001 8.49902
s-24.334 2 -41.001 2h-14z" />
    <glyph glyph-name="C" unicode="C" horiz-adv-x="660" 
d="M603 736l-0.00390625 -235c-20 26.667 -45.167 47.167 -75.5 61.5s-62.5 21.5 -96.5 21.5c-59.333 0 -107.666 -20 -144.999 -60s-56 -89.667 -56 -149c0 -60 18.833 -109.167 56.5 -147.5s86.834 -57.5 147.501 -57.5c32 0 63 7.16699 93 21.5s55.333 33.833 76 58.5
v-235c-76 -23.333 -133.667 -35 -173 -35c-107.333 0 -201.666 37 -282.999 111c-80.667 72.667 -121 167.667 -121 285c0 108 37 200 111 276c37.333 38 81.333 67.833 132 89.5s102.334 32.5 155.001 32.5c58 0 117.667 -12.667 179 -38z" />
    <glyph glyph-name="D" unicode="D" horiz-adv-x="752" 
d="M64 0v754h278c105.333 0 195.5 -36.5 270.5 -109.5s112.5 -162.167 112.5 -267.5s-37.5 -194.5 -112.5 -267.5s-165.167 -109.5 -270.5 -109.5h-278zM260 588v-422h44c62.667 0 114.5 17.667 155.5 53s61.5 88 61.5 158c0 66 -19.667 117.667 -59 155s-91.333 56 -156 56
h-46z" />
    <glyph glyph-name="E" unicode="E" horiz-adv-x="550" 
d="M493 588h-233v-126h221v-166h-221v-130h233v-166h-429v754h429v-166z" />
    <glyph glyph-name="F" unicode="F" horiz-adv-x="542" 
d="M497 588h-237v-126h215v-166h-215v-296h-196v754h433v-166z" />
    <glyph glyph-name="G" unicode="G" horiz-adv-x="842" 
d="M427 421h389.003c-1.33301 -65.333 -6.83301 -120.666 -16.5 -165.999s-29.834 -89.333 -60.501 -132c-70.667 -98.667 -174.334 -148 -311.001 -148c-118.667 0 -215.334 36.833 -290.001 110.5s-112 169.5 -112 287.5c0 122 37.667 220.167 113 294.5
s174 111.5 296 111.5c78.667 0 147 -17.667 205 -53s103 -88 135 -158l-186 -78c-14 37.333 -35 66.666 -63 87.999s-61.333 32 -100 32c-60.667 0 -108.5 -24 -143.5 -72s-52.5 -103.333 -52.5 -166s17.833 -117.667 53.5 -165s84.167 -71 145.5 -71
c44 0 80.333 11.333 109 34s45 55 49 97h-160v154z" />
    <glyph glyph-name="H" unicode="H" horiz-adv-x="803" 
d="M260 463h283v291h196v-754h-196v309h-283v-309h-196v754h196v-291z" />
    <glyph glyph-name="I" unicode="I" horiz-adv-x="324" 
d="M260 754v-754h-196v754h196z" />
    <glyph glyph-name="J" unicode="J" horiz-adv-x="489" 
d="M233 754l196.001 0.00292969v-509c0 -82 -21.333 -146.667 -64 -194s-104.667 -71 -186 -71s-146 37 -194 111l113 119c31.333 -42.667 57.666 -64 78.999 -64c9.33301 0 17.5 1.5 24.5 4.5s12.333 8.16699 16 15.5s6.66699 13.666 9 18.999s4 13.666 5 24.999
s1.5 19.166 1.5 23.499v23.5v497z" />
    <glyph glyph-name="K" unicode="K" horiz-adv-x="758" 
d="M262 443l237 311h243l-300 -357l327 -397h-254l-253 327h-2v-327h-196v754h196v-311h2z" />
    <glyph glyph-name="L" unicode="L" horiz-adv-x="495" 
d="M260 754v-588h235v-166h-431v754h196z" />
    <glyph glyph-name="M" unicode="M" horiz-adv-x="983" 
d="M19 0l128 754h193l153 -403l162 403h195l114 -754h-196l-55 434h-2l-181 -434h-78l-173 434h-2l-63 -434h-195z" />
    <glyph glyph-name="N" unicode="N" horiz-adv-x="881" 
d="M64 0v754h196l359 -461h2v461h196v-754h-196l-359 462h-2v-462h-196z" />
    <glyph glyph-name="O" unicode="O" horiz-adv-x="887" 
d="M443 779c72.667 0 140.667 -16.167 204 -48.5s114.666 -78.5 153.999 -138.5s59 -127 59 -201c0 -122 -39.167 -221.833 -117.5 -299.5s-178.166 -116.5 -299.499 -116.5s-221.166 38.833 -299.499 116.5s-117.5 177.5 -117.5 299.5c0 74 19.667 141 59 201
s90.666 106.167 153.999 138.5s131.333 48.5 204 48.5zM443 589c-58 0 -107.998 -20 -149.998 -60s-63 -86.333 -63 -139c0 -64 20.667 -117.5 62 -160.5s91.666 -64.5 150.999 -64.5s109.666 21.5 150.999 64.5s62 96.5 62 160.5c0 52.667 -21 99 -63 139s-92 60 -150 60z
" />
    <glyph glyph-name="P" unicode="P" horiz-adv-x="661" 
d="M64 0v754h300c84.667 0 151.5 -20.5 200.5 -61.5s73.5 -103.167 73.5 -186.5c0 -170.667 -89 -256 -267 -256h-111v-250h-196zM260 596l-0.00488281 -187.999h33c18.667 0 32.834 0.166992 42.501 0.5s22 2.16602 37 5.49902s26.167 8 33.5 14s13.833 15 19.5 27
s8.5 27 8.5 45c0 18.667 -2.66699 34.167 -8 46.5s-11.666 21.833 -18.999 28.5s-18.166 11.5 -32.499 14.5s-26.666 4.83301 -36.999 5.5s-25.166 1 -44.499 1h-33z" />
    <glyph glyph-name="Q" unicode="Q" horiz-adv-x="887" 
d="M568 318l53 -55c23.333 32.667 35 69.667 35 111c0 57.333 -20.833 107.5 -62.5 150.5s-91.5 64.5 -149.5 64.5s-108.167 -20 -150.5 -60s-63.5 -86.333 -63.5 -139c0 -64 20.833 -117.5 62.5 -160.5s92.167 -64.5 151.5 -64.5c20.667 0 40.667 3.33301 60 10l-121 120z
M890 -19l-179.999 -28l-60 71c-54 -32.667 -123 -49 -207 -49c-121.333 0 -221.166 38.833 -299.499 116.5s-117.5 177.5 -117.5 299.5c0 74 19.667 141 59 201s90.666 106.167 153.999 138.5s131.333 48.5 204 48.5c119.333 0 218.666 -37.167 297.999 -111.5
s119 -171.833 119 -292.5c0 -96.667 -32.333 -185 -97 -265z" />
    <glyph glyph-name="R" unicode="R" horiz-adv-x="680" 
d="M454 309l237 -309.001h-244l-185 290h-2v-290h-196v754h293c78.667 0 142 -19.333 190 -58s72 -96.667 72 -174c0 -54 -14.5 -100.667 -43.5 -140s-69.5 -63.666 -121.5 -72.999zM260 603.999v-188h19c90.667 0 136 31.333 136 94s-45.333 94 -136 94h-19z" />
    <glyph glyph-name="S" unicode="S" horiz-adv-x="616" 
d="M556 712l-77.999 -152.002c-40 33.333 -83.333 50 -130 50c-20.667 0 -39.834 -5.66699 -57.501 -17s-26.5 -26.666 -26.5 -45.999c0 -13.333 5.5 -25.333 16.5 -36s21.333 -18 31 -22s22.834 -8.66699 39.501 -14l50 -15c58.667 -17.333 104.334 -41.833 137.001 -73.5
s49 -75.834 49 -132.501c0 -91.333 -26 -159 -78 -203c-56 -47.333 -127.333 -71 -214 -71c-94.667 0 -183 28.667 -265 86l84 158c59.333 -52 117.333 -78 174 -78c25.333 0 47.5 6.5 66.5 19.5s28.5 31.833 28.5 56.5c0 34.667 -37.667 62.667 -113 84
c-2.66699 0.666992 -4.66699 1.33398 -6 2.00098c-36 10 -64.333 19.333 -85 28s-41.334 20.834 -62.001 36.501s-35.334 35.5 -44.001 59.5s-13 53.667 -13 89c0 76 24.333 137.167 73 183.5s111 69.5 187 69.5c38 0 78.5 -5.66699 121.5 -17s81.167 -26.333 114.5 -45z
" />
    <glyph glyph-name="T" unicode="T" horiz-adv-x="533" 
d="M364 588v-588h-196v588h-162v166h520v-166h-162z" />
    <glyph glyph-name="U" unicode="U" horiz-adv-x="778" 
d="M522 754h196v-424c0 -61.333 -4.83301 -112.833 -14.5 -154.5s-31.167 -78.834 -64.5 -111.501c-56.667 -56 -140 -84 -250 -84s-193.333 28 -250 84c-33.333 32.667 -54.833 69.834 -64.5 111.501s-14.5 93.167 -14.5 154.5v424h196v-397c0 -24 0.5 -44 1.5 -60
s4 -34 9 -54s12 -36 21 -48s22.167 -22.167 39.5 -30.5s38 -12.5 62 -12.5s44.667 4.16699 62 12.5s30.5 18.5 39.5 30.5s16 28 21 48s8 38 9 54s1.5 36 1.5 60v397z" />
    <glyph glyph-name="V" unicode="V" horiz-adv-x="761" 
d="M198 754l182 -458l183 458h213l-322 -754h-152l-317 754h213z" />
    <glyph glyph-name="W" unicode="W" horiz-adv-x="1117" 
d="M189 754l131 -487h2l158 487h156l148 -487h2l142 487h204l-241 -754h-200l-132 437h-2l-148 -437h-199l-225 754h204z" />
    <glyph glyph-name="X" unicode="X" horiz-adv-x="789" 
d="M287 403l-241 351h241l115 -195l115 195h241l-241 -351l279 -403h-236l-158 246l-173 -246h-237z" />
    <glyph glyph-name="Y" unicode="Y" horiz-adv-x="714" 
d="M259 362l-278 392h235l141 -205l141 205h235l-278 -392v-362h-196v362z" />
    <glyph glyph-name="Z" unicode="Z" horiz-adv-x="707" 
d="M341 166h316v-166h-646l357 588h-296v166h624z" />
    <glyph glyph-name="bracketleft" unicode="[" horiz-adv-x="350" 
d="M191 684v-818h107v-106h-246v1030h246v-106h-107z" />
    <glyph glyph-name="backslash" unicode="\" horiz-adv-x="579" 
d="M27 830h144l381 -830h-142z" />
    <glyph glyph-name="bracketright" unicode="]" horiz-adv-x="350" 
d="M159 -134v818h-107v106h246v-1030h-246v106h107z" />
    <glyph glyph-name="asciicircum" unicode="^" 
d="M217 340l-114 67l180 377h120l180 -377l-114 -67l-126 269z" />
    <glyph glyph-name="underscore" unicode="_" horiz-adv-x="500" 
d="M500 -125h-500v50h500v-50z" />
    <glyph glyph-name="grave" unicode="`" horiz-adv-x="402" 
d="M75 740l111 80l141 -172l-81 -59z" />
    <glyph glyph-name="a" unicode="a" horiz-adv-x="682" 
d="M328 372c-36 0 -64.5 -11.167 -85.5 -33.5s-31.5 -49.833 -31.5 -82.5c0 -33.333 10.5 -60.833 31.5 -82.5s49.5 -32.5 85.5 -32.5s64.5 10.833 85.5 32.5s31.5 49.167 31.5 82.5c0 32.667 -10.5 60.167 -31.5 82.5s-49.5 33.5 -85.5 33.5zM621 513v-512.999h-182v57h-2
c-15.333 -24.667 -37 -43.167 -65 -55.5s-58 -18.5 -90 -18.5c-74.667 0 -136.5 26.833 -185.5 80.5s-73.5 118.167 -73.5 193.5s24.167 139.666 72.5 192.999s109.833 80 184.5 80c68 0 121 -22.333 159 -67v50h182z" />
    <glyph glyph-name="b" unicode="b" horiz-adv-x="682" 
d="M54 0v829.999h182v-367c38.667 44.667 91.667 67 159 67c74.667 0 136.167 -26.667 184.5 -80s72.5 -117.666 72.5 -192.999s-24.333 -139.833 -73 -193.5s-110.667 -80.5 -186 -80.5c-32 0 -61.833 6.16699 -89.5 18.5s-49.5 30.833 -65.5 55.5h-2v-57h-182z
M347 371.999c-36 0 -64.5 -11.167 -85.5 -33.5s-31.5 -49.833 -31.5 -82.5c0 -33.333 10.5 -60.833 31.5 -82.5s49.5 -32.5 85.5 -32.5s64.5 10.833 85.5 32.5s31.5 49.167 31.5 82.5c0 32.667 -10.5 60.167 -31.5 82.5s-49.5 33.5 -85.5 33.5z" />
    <glyph glyph-name="c" unicode="c" horiz-adv-x="483" 
d="M430 500l0.000976562 -153.998c-32.667 24 -64 36 -94 36c-35.333 0 -65 -12 -89 -36s-36 -53.667 -36 -89c0 -36.667 12 -66.834 36 -90.501s54.667 -35.5 92 -35.5c35.333 0 65.666 11.667 90.999 35v-154c-38.667 -19.333 -81.334 -29 -128.001 -29
c-77.333 0 -143.166 25.5 -197.499 76.5s-81.5 114.833 -81.5 191.5c0 81.333 27.5 148.166 82.5 200.499s123.167 78.5 204.5 78.5c44 0 84 -10 120 -30z" />
    <glyph glyph-name="d" unicode="d" horiz-adv-x="682" 
d="M446 0v57.001h-2c-15.333 -24.667 -37 -43.167 -65 -55.5s-58 -18.5 -90 -18.5c-74.667 0 -136.5 26.833 -185.5 80.5s-73.5 118.167 -73.5 193.5s24.167 139.666 72.5 192.999s109.833 80 184.5 80c68 0 121 -22.333 159 -67v367h182v-830h-182zM335 372.001
c-36 0 -64.5 -11.167 -85.5 -33.5s-31.5 -49.833 -31.5 -82.5c0 -33.333 10.5 -60.833 31.5 -82.5s49.5 -32.5 85.5 -32.5s64.5 10.833 85.5 32.5s31.5 49.167 31.5 82.5c0 32.667 -10.5 60.167 -31.5 82.5s-49.5 33.5 -85.5 33.5z" />
    <glyph glyph-name="e" unicode="e" horiz-adv-x="610" 
d="M207 331h210.999c-4.66699 24 -16.667 43.5 -36 58.5s-41.666 22.5 -66.999 22.5c-27.333 0 -50.833 -7 -70.5 -21s-32.167 -34 -37.5 -60zM586.999 245v-19h-383c0 -76 38 -114 114 -114c39.333 0 68.333 15.667 87 47h175c-13.333 -56.667 -45.666 -101 -96.999 -133
c-46.667 -28.667 -101.334 -43 -164.001 -43c-88 0 -159.5 24 -214.5 72s-82.5 115 -82.5 201c0 84.667 26.167 151.5 78.5 200.5s120.833 73.5 205.5 73.5c88.667 0 157.667 -25.5 207 -76.5s74 -120.5 74 -208.5z" />
    <glyph glyph-name="f" unicode="f" horiz-adv-x="388" 
d="M260 363v-363.001h-182v363h-64v150h64v65c0 42.667 3 76.834 9 102.501s20.333 51.5 43 77.5c46.667 54.667 106.334 82 179.001 82c28.667 0 54.667 -6 78 -18v-157c-26.667 11.333 -48 17 -64 17c-22.667 0 -38.834 -6.83301 -48.501 -20.5s-14.5 -35.5 -14.5 -65.5
v-83h127v-150h-127z" />
    <glyph glyph-name="g" unicode="g" horiz-adv-x="677" 
d="M623 513l0.000976562 -463c0 -106 -25.167 -183.5 -75.5 -232.5s-124.166 -73.5 -221.499 -73.5c-42 0 -83.5 6.66699 -124.5 20s-77.833 35.333 -110.5 66s-51.667 67.334 -57 110.001h204c4.66699 -17.333 16 -30.333 34 -39c16 -8 33.333 -12 52 -12
c45.333 0 76.166 12.667 92.499 38s24.5 61.666 24.5 108.999v24c-46.667 -46.667 -101 -70 -163 -70c-74 0 -134.667 25 -182 75s-71 112.333 -71 187c0 76.667 24.667 142.167 74 196.5s112.333 81.5 189 81.5c67.333 0 117.666 -23.667 150.999 -71h2v54h182z
M330.001 376c-36 0 -64.5 -11.167 -85.5 -33.5s-31.5 -49.833 -31.5 -82.5c0 -33.333 10.5 -60.833 31.5 -82.5s49.5 -32.5 85.5 -32.5s64.5 10.833 85.5 32.5s31.5 49.167 31.5 82.5c0 32.667 -10.5 60.167 -31.5 82.5s-49.5 33.5 -85.5 33.5z" />
    <glyph glyph-name="h" unicode="h" horiz-adv-x="661" 
d="M60 830l182 0.000976562v-382h2c41.333 54.667 96 82 164 82c63.333 0 111.333 -19.333 144 -58s49 -91.334 49 -158.001v-314h-182v263c0 37.333 -5.5 67 -16.5 89s-32.833 33 -65.5 33c-33.333 0 -57.5 -11.667 -72.5 -35s-22.5 -52.333 -22.5 -87v-263h-182v830z" />
    <glyph glyph-name="i" unicode="i" horiz-adv-x="302" 
d="M242 513v-513h-182v513h182zM151 812c28 0 52 -10 72 -30s30 -44 30 -72s-10 -52 -30 -72s-44 -30 -72 -30s-52 10 -72 30s-30 44 -30 72s10 52 30 72s44 30 72 30z" />
    <glyph glyph-name="j" unicode="j" horiz-adv-x="302" 
d="M242 513v-769h-182v769h182zM151 812c28 0 52 -10 72 -30s30 -44 30 -72s-10 -52 -30 -72s-44 -30 -72 -30s-52 10 -72 30s-30 44 -30 72s10 52 30 72s44 30 72 30z" />
    <glyph glyph-name="k" unicode="k" horiz-adv-x="688" 
d="M242 830v-502l189 185h249l-257 -237l273 -276h-255l-199 209v-209h-182v830h182z" />
    <glyph glyph-name="l" unicode="l" horiz-adv-x="302" 
d="M242 830v-830h-182v830h182z" />
    <glyph glyph-name="m" unicode="m" horiz-adv-x="989" 
d="M242 513l-0.00292969 -64.002h2c40.667 54 94.667 81 162 81c81.333 0 139.666 -32.667 174.999 -98c17.333 31.333 41.666 55.5 72.999 72.5s65 25.5 101 25.5c116.667 0 175 -67.667 175 -203v-327h-182v245c0 16.667 -0.166992 28.667 -0.5 36
s-1.66602 19 -3.99902 35s-5.83301 28 -10.5 36s-12.167 15.5 -22.5 22.5s-22.833 10.5 -37.5 10.5c-16 0 -29.667 -3.16699 -41 -9.5s-20 -13.666 -26 -21.999s-10.5 -19.5 -13.5 -33.5s-4.83301 -26.167 -5.5 -36.5s-1 -23.166 -1 -38.499v-245h-182v245
c0 13.333 -0.166992 23.666 -0.5 30.999s-1.16602 17.666 -2.49902 30.999s-3.66602 24 -6.99902 32s-7.83301 16.333 -13.5 25s-13.5 15 -23.5 19s-21.333 6 -34 6s-24 -2 -34 -6s-17.833 -10.333 -23.5 -19s-10.167 -17 -13.5 -25s-5.66602 -18.667 -6.99902 -32
s-2.16602 -23.666 -2.49902 -30.999s-0.5 -17.666 -0.5 -30.999v-245h-182v513h182z" />
    <glyph glyph-name="n" unicode="n" horiz-adv-x="661" 
d="M242 513l-0.00195312 -65.998h2c37.333 55.333 92 83 164 83c66 0 114.667 -18.833 146 -56.5s47 -89.834 47 -156.501v-317h-182v250v15.5v18c0 3 -0.166992 8.66699 -0.5 17s-1 14.5 -2 18.5s-2.5 9.66699 -4.5 17s-4.33301 12.666 -7 15.999l-10.5 12.5
c-4.33301 5 -9.16602 8.66699 -14.499 11s-11.666 4.5 -18.999 6.5s-15.333 3 -24 3c-63.333 0 -95 -39.667 -95 -119v-266h-182v513h182z" />
    <glyph glyph-name="o" unicode="o" horiz-adv-x="662" 
d="M331 530c86.667 0 159.833 -24.667 219.5 -74s89.5 -116 89.5 -200s-29.833 -150.5 -89.5 -199.5s-132.834 -73.5 -219.501 -73.5c-86 0 -159 24.5 -219 73.5s-90 115.5 -90 199.5s29.833 150.667 89.5 200s132.834 74 219.501 74zM330.999 372
c-36 0 -64.5 -11.167 -85.5 -33.5s-31.5 -49.833 -31.5 -82.5c0 -33.333 10.5 -60.833 31.5 -82.5s49.5 -32.5 85.5 -32.5s64.5 10.833 85.5 32.5s31.5 49.167 31.5 82.5c0 32.667 -10.5 60.167 -31.5 82.5s-49.5 33.5 -85.5 33.5z" />
    <glyph glyph-name="p" unicode="p" horiz-adv-x="682" 
d="M236 513v-58.001h2c16 24.667 38 43.334 66 56.001s57.667 19 89 19c74.667 0 136.5 -27 185.5 -81s73.5 -118.667 73.5 -194s-24.167 -139.5 -72.5 -192.5s-109.833 -79.5 -184.5 -79.5c-68 0 -121 22 -159 66v-305h-182v769h182zM347 371.999
c-36 0 -64.5 -11.167 -85.5 -33.5s-31.5 -49.833 -31.5 -82.5c0 -33.333 10.5 -60.833 31.5 -82.5s49.5 -32.5 85.5 -32.5s64.5 10.833 85.5 32.5s31.5 49.167 31.5 82.5c0 32.667 -10.5 60.167 -31.5 82.5s-49.5 33.5 -85.5 33.5z" />
    <glyph glyph-name="q" unicode="q" horiz-adv-x="682" 
d="M628 513v-768.999h-182v305c-37.333 -44 -90.333 -66 -159 -66c-74.667 0 -136.167 26.5 -184.5 79.5s-72.5 117.167 -72.5 192.5c0 74.667 24.5 139.167 73.5 193.5s110.833 81.5 185.5 81.5c32 0 62 -6.33301 90 -19s49.667 -31.334 65 -56.001h2v58h182zM335 372.001
c-36 0 -64.5 -11.167 -85.5 -33.5s-31.5 -49.833 -31.5 -82.5c0 -33.333 10.5 -60.833 31.5 -82.5s49.5 -32.5 85.5 -32.5s64.5 10.833 85.5 32.5s31.5 49.167 31.5 82.5c0 32.667 -10.5 60.167 -31.5 82.5s-49.5 33.5 -85.5 33.5z" />
    <glyph glyph-name="r" unicode="r" horiz-adv-x="453" 
d="M242 513l-0.000976562 -84h2c34 60.667 89.333 91 166 91h35v-175c-20 11.333 -45.667 17 -77 17c-47.333 0 -80.166 -13.5 -98.499 -40.5s-27.5 -65.167 -27.5 -114.5v-207h-182v513h182z" />
    <glyph glyph-name="s" unicode="s" horiz-adv-x="513" 
d="M460 497l-60.9971 -116c-31.333 16.667 -64 25 -98 25c-13.333 0 -26.166 -3 -38.499 -9s-18.5 -14.667 -18.5 -26c0 -4.66699 1 -9 3 -13s5 -7.5 9 -10.5s8 -5.5 12 -7.5s9.16699 -3.83301 15.5 -5.5s11.333 -2.83398 15 -3.50098s8.66699 -1.5 15 -2.5
s10.5 -1.83301 12.5 -2.5c99.333 -20 149 -70.667 149 -152c0 -62.667 -23.833 -110.167 -71.5 -142.5s-104.5 -48.5 -170.5 -48.5c-74 0 -143 19.667 -207 59l66 127c20 -14 43.667 -26.167 71 -36.5s51.666 -15.5 72.999 -15.5c14 0 27 3.33301 39 10s18 16.334 18 29.001
c0 7.33301 -1.83301 13.833 -5.5 19.5s-9.83398 10.334 -18.501 14.001s-16.834 6.5 -24.501 8.5s-18.5 4.5 -32.5 7.5s-25 5.5 -33 7.5c-34.667 9.33301 -62.334 23.833 -83.001 43.5s-31 50.167 -31 91.5c0 40 11.333 74.167 34 102.5s50.5 48.666 83.5 60.999
s69.167 18.5 108.5 18.5c64 0 120.333 -11 169 -33z" />
    <glyph glyph-name="t" unicode="t" horiz-adv-x="360" 
d="M259 363v-363h-182v363h-59v150h59v154h182v-154h103v-150h-103z" />
    <glyph glyph-name="u" unicode="u" horiz-adv-x="659" 
d="M57 513h182v-274c0 -36 6.5 -63.5 19.5 -82.5s36.833 -28.5 71.5 -28.5s58.5 9.5 71.5 28.5s19.5 46.5 19.5 82.5v274h182v-309c0 -147.333 -91 -221 -273 -221s-273 73.667 -273 221v309z" />
    <glyph glyph-name="v" unicode="v" horiz-adv-x="623" 
d="M189 513l123 -263l122 263h204l-268 -513h-116l-269 513h204z" />
    <glyph glyph-name="w" unicode="w" horiz-adv-x="996" 
d="M187 513l128 -278l129 278h108l129 -278l129 278h201l-268 -513h-118l-127 281l-127 -281h-118l-268 513h202z" />
    <glyph glyph-name="x" unicode="x" horiz-adv-x="712" 
d="M241 278l-208 235h231l92 -106l92 106h235l-212 -235l256 -278h-239l-132 152l-132 -152h-239z" />
    <glyph glyph-name="y" unicode="y" horiz-adv-x="654" 
d="M233 70l-248 443h210l137 -263l134 263h207l-411 -769h-204z" />
    <glyph glyph-name="z" unicode="z" horiz-adv-x="559" 
d="M312 151h216v-151h-520l241 362h-209v151h512z" />
    <glyph glyph-name="braceleft" unicode="{" horiz-adv-x="352" 
d="M36 227l-0.00488281 104.005c30.667 0 50.667 6 60 18c6.66699 8 10 19.667 10 35v253c0 48 13 85.5 39 112.5s50.667 40.5 74 40.5h97v-120h-25c-14 0 -24.667 -3.33301 -32 -10s-11.5 -13.334 -12.5 -20.001s-1.5 -16.334 -1.5 -29.001v-225
c0 -60.667 -32 -96 -96 -106v-2c9.33301 -1.33301 16.833 -2.5 22.5 -3.5s13.834 -4 24.501 -9s19 -11.167 25 -18.5s11.5 -18.5 16.5 -33.5s7.5 -32.5 7.5 -52.5v-222c0 -10 0.333008 -17.5 1 -22.5s2.33398 -10.833 5.00098 -17.5s7.33398 -11.5 14.001 -14.5
s15.334 -4.5 26.001 -4.5h25v-120h-97c-23.333 0 -48 13.5 -74 40.5s-39 63.833 -39 110.5v253c0 7.33301 -0.5 14.166 -1.5 20.499s-2.66699 11.666 -5 15.999s-4.66602 8 -6.99902 11s-5.5 5.5 -9.5 7.5s-7.16699 3.66699 -9.5 5s-5.83301 2.16602 -10.5 2.49902
s-8 0.5 -10 0.5h-9.5h-7.5z" />
    <glyph glyph-name="bar" unicode="|" horiz-adv-x="579" 
d="M365 786v-1000h-150v1000h150z" />
    <glyph glyph-name="braceright" unicode="}" horiz-adv-x="352" 
d="M316 331l-0.00488281 -104.005h-7.5h-9.5c-2 0 -5.33301 -0.166992 -10 -0.5s-8.16699 -1.16602 -10.5 -2.49902s-5.5 -3 -9.5 -5s-7.16699 -4.5 -9.5 -7.5s-4.66602 -6.66699 -6.99902 -11s-4 -9.66602 -5 -15.999s-1.5 -13.166 -1.5 -20.499v-253
c0 -46.667 -13 -83.5 -39 -110.5s-50.667 -40.5 -74 -40.5h-97v120h25c10.667 0 19.334 1.5 26.001 4.5s11.334 7.83301 14.001 14.5s4.33398 12.5 5.00098 17.5s1 12.5 1 22.5v222c0 20 2.5 37.5 7.5 52.5s10.5 26.167 16.5 33.5s14.333 13.5 25 18.5s18.834 8 24.501 9
s13.167 2.16699 22.5 3.5v2c-64 10 -96 45.333 -96 106v225c0 12.667 -0.5 22.334 -1.5 29.001s-5.16699 13.334 -12.5 20.001s-18 10 -32 10h-25v120h97c23.333 0 48 -13.5 74 -40.5s39 -64.5 39 -112.5v-253c4.66699 -35.333 28 -53 70 -53z" />
    <glyph glyph-name="asciitilde" unicode="~" 
d="M523 373l113.994 -97.001c-12.667 -21.333 -23.167 -38.333 -31.5 -51s-20.5 -28.5 -36.5 -47.5s-33 -33.333 -51 -43s-36.667 -14.5 -56 -14.5c-9.33301 0 -18.333 0.833008 -27 2.5s-18.167 4.83398 -28.5 9.50098l-22 10c-4.33301 2 -12.666 6.66699 -24.999 14
s-19.166 11.333 -20.499 12c-8 4.66699 -21.167 13 -39.5 25s-32.666 20.5 -42.999 25.5s-20.166 7.5 -29.499 7.5c-18.667 0 -40.334 -28 -65.001 -84l-113 96c5.33301 6.66699 16.333 21.667 33 45s30.334 41.5 41.001 54.5s25.5 25.833 44.5 38.5s38.167 19 57.5 19
c36.667 0 79.334 -18.667 128.001 -56c42.667 -33.333 78.667 -50 108 -50c20.667 0 41.334 28 62.001 84z" />
    <glyph glyph-name="uni00A0" unicode="&#xa0;" horiz-adv-x="343" 
 />
    <glyph glyph-name="exclamdown" unicode="&#xa1;" horiz-adv-x="384" 
d="M192 532c32.667 0 60.334 -11.333 83.001 -34s34 -50.334 34 -83.001c0 -32 -11.333 -59.5 -34 -82.5s-50.334 -34.5 -83.001 -34.5s-60.334 11.5 -83.001 34.5s-34 50.5 -34 82.5c0 32.667 11.333 60.334 34 83.001s50.334 34 83.001 34zM98 255h189v-498h-189v498z" />
    <glyph glyph-name="cent" unicode="&#xa2;" 
d="M394 10v98.999c-70 2.66699 -129.667 30.5 -179 83.5s-74 114.5 -74 184.5c0 74.667 23.5 137 70.5 187s107.833 78.667 182.5 86v93h93v-99l58 -17v-163c-26.667 25.333 -56 38 -88 38c-36 0 -66 -11.5 -90 -34.5s-36 -52.167 -36 -87.5c0 -34 11.5 -63 34.5 -87
s51.5 -36 85.5 -36c41.333 0 72.666 12.667 93.999 38v-163c-25.333 -9.33301 -44.666 -14.666 -57.999 -15.999v-106h-93z" />
    <glyph glyph-name="sterling" unicode="&#xa3;" 
d="M478 300l-141.997 -0.000976562c6 -16.667 9.16699 -38.667 9.5 -66s-2.83398 -50 -9.50098 -68l11 -4c63.333 -22.667 112.666 -34 147.999 -34c15.333 0 27.666 4.33301 36.999 13s14 20.667 14 36h122c-4 -58.667 -21 -104.667 -51 -138
c-32.667 -36.667 -77 -55 -133 -55c-9.33301 0 -18.5 0.5 -27.5 1.5s-18.833 2.66699 -29.5 5s-19.167 4.33301 -25.5 6l-29 8l-26.5 7.5c-58.667 16.667 -101 25 -127 25c-35.333 0 -56.333 -12.333 -63 -37h-130c8.66699 46.667 28.5 87.667 59.5 123
s68.5 53.333 112.5 54c17.333 36.667 11.333 77.667 -18 123h-161v76h108c-24 38.667 -36 81.334 -36 128.001c0 75.333 27 139 81 191c50.667 48.667 121 73 211 73c98 0 168.5 -22.5 211.5 -67.5s65.167 -117.167 66.5 -216.5h-194v35c0 25.333 -8.83301 47.5 -26.5 66.5
s-39.167 28.5 -64.5 28.5c-29.333 0 -52.5 -10.167 -69.5 -30.5s-25.5 -45.5 -25.5 -75.5c0 -48 13.667 -92 41 -132h156v-76z" />
    <glyph glyph-name="currency" unicode="&#xa4;" 
d="M49 152l66.002 66c-33.333 44 -50 97.333 -50 160c0 69.333 16.667 124.333 50 165l-66 67l62 63l67 -67c45.333 34.667 101.333 52 168 52c65.333 0 118.666 -17.333 159.999 -52l67 67l62 -62l-62 -63c36 -48.667 54 -104.667 54 -168c0 -65.333 -18.667 -119 -56 -161
l66 -66l-60 -65l-67 66c-42.667 -36 -97.334 -54 -164.001 -54c-68.667 0 -125 18.333 -169 55l-66 -66zM346.002 508c-37.333 0 -68.5 -12.833 -93.5 -38.5s-37.5 -57.167 -37.5 -94.5s12.333 -67.5 37 -90.5s56 -34.5 94 -34.5s69.333 11.5 94 34.5s37 53.167 37 90.5
s-12.5 68.833 -37.5 94.5s-56.167 38.5 -93.5 38.5z" />
    <glyph glyph-name="yen" unicode="&#xa5;" 
d="M633 446h-142l-56 -84h198v-76h-198v-286h-184v286h-200v76h199l-57 84h-142v76h92l-154 232h222l132 -205l132 205h222l-155 -232h91v-76z" />
    <glyph glyph-name="brokenbar" unicode="&#xa6;" horiz-adv-x="579" 
d="M365 161v-250h-150v250h150zM365 661v-250h-150v250h150z" />
    <glyph glyph-name="section" unicode="&#xa7;" 
d="M285 270l167.001 -82.998c17.333 14 26 32 26 54c0 9.33301 -2 18 -6 26s-10.5 15.167 -19.5 21.5s-16.5 11.166 -22.5 14.499s-14.333 7.66602 -25 12.999l-164 83c-20.667 -12 -31 -30 -31 -54c0 -5.33301 0.833008 -10.333 2.5 -15s3.16699 -8.66699 4.5 -12
s4.16602 -7 8.49902 -11s7.5 -7 9.5 -9s6.16699 -4.83301 12.5 -8.5l12 -7c1.66699 -1 6.16699 -3.33301 13.5 -7s11.333 -5.5 12 -5.5zM563.001 589.002l-156.995 -0.000976562c-4 18 -12.333 32.5 -25 43.5s-28 16.5 -46 16.5c-15.333 0 -28.5 -4.66699 -39.5 -14
s-16.5 -21.666 -16.5 -36.999c0 -8 1.66699 -15.667 5 -23s6.66602 -13.166 9.99902 -17.499s9.33301 -9.33301 18 -15l18.5 -12c3.66699 -2.33301 11 -6 22 -11s17.5 -8.16699 19.5 -9.5l111 -56c50.667 -24.667 87.834 -49.334 111.501 -74.001s35.5 -60.667 35.5 -108
c0 -60 -28 -112.333 -84 -157c34 -30 51 -73.333 51 -130c0 -46 -12.833 -85.833 -38.5 -119.5s-57.834 -58 -96.501 -73s-80.667 -22.5 -126 -22.5c-48.667 0 -93.834 8.16699 -135.501 24.5s-76.167 42.666 -103.5 78.999s-40 79.5 -38 129.5h183
c-0.666992 -25.333 9.16602 -46.833 29.499 -64.5s43.166 -26.5 68.499 -26.5c21.333 0 39.333 6 54 18s22 28.333 22 49c0 6.66699 -0.666992 12.834 -2 18.501s-4.33301 11 -9 16s-8.16699 9 -10.5 12s-7.33301 6.66699 -15 11s-12.5 7.16602 -14.5 8.49902
s-7.83301 4.33301 -17.5 9s-14.834 7 -15.501 7l-158 77c-78 38.667 -117 93.667 -117 165c0 60.667 28.667 115 86 163c-14 13.333 -25 31 -33 53s-12 43.333 -12 64c0 60 22.5 106.833 67.5 140.5s98.5 50.5 160.5 50.5c30.667 0 59.5 -3.5 86.5 -10.5
s51.667 -17.667 74 -32s40.333 -33.666 54 -57.999s21.167 -52.5 22.5 -84.5z" />
    <glyph glyph-name="dieresis" unicode="&#xa8;" horiz-adv-x="604" 
d="M174 800c26.667 0 49.667 -9.66699 69 -29s29 -42.333 29 -69c0 -27.333 -9.5 -50.5 -28.5 -69.5s-42.167 -28.5 -69.5 -28.5s-50.666 9.5 -69.999 28.5s-29 42.167 -29 69.5s9.66699 50.5 29 69.5s42.666 28.5 69.999 28.5zM430 800c26.667 0 49.667 -9.66699 69 -29
s29 -42.333 29 -69c0 -27.333 -9.5 -50.5 -28.5 -69.5s-42.167 -28.5 -69.5 -28.5s-50.666 9.5 -69.999 28.5s-29 42.167 -29 69.5s9.66699 50.5 29 69.5s42.666 28.5 69.999 28.5z" />
    <glyph glyph-name="copyright" unicode="&#xa9;" horiz-adv-x="800" 
d="M400 -20c-110 0 -203.501 38.499 -280.501 115.499s-115.5 170.5 -115.5 280.5c0 110.667 38.333 204.667 115 282s170.334 116 281.001 116c110 0 203.5 -38.667 280.5 -116s115.5 -171.333 115.5 -282c0 -109.333 -38.5 -202.666 -115.5 -279.999
s-170.5 -116 -280.5 -116zM399.999 73.999c86 0 157.833 28.5 215.5 85.5s86.5 129.167 86.5 216.5c0 88 -28.833 160.667 -86.5 218s-129.5 86 -215.5 86c-86.667 0 -158.667 -28.5 -216 -85.5s-86 -129.833 -86 -218.5c0 -87.333 28.667 -159.5 86 -216.5
s129.333 -85.5 216 -85.5zM601.999 458.999l-90.0039 -0.00195312c-4 23.333 -15 41.333 -33 54s-39.667 19 -65 19c-38 0 -68 -14.667 -90 -44s-33 -64.666 -33 -105.999c0 -40 11.833 -75.5 35.5 -106.5s53.834 -46.5 90.501 -46.5c24.667 0 46.334 7 65.001 21
s28.667 32.667 30 56h90c-5.33301 -46.667 -25.666 -84 -60.999 -112s-76.666 -42 -123.999 -42c-65.333 0 -118.333 21.833 -159 65.5s-61 97.834 -61 162.501c0 67.333 19.667 122.333 59 165s92.333 64 159 64c48 0 89.167 -13.5 123.5 -40.5s55.5 -63.5 63.5 -109.5z
" />
    <glyph glyph-name="ordfeminine" unicode="&#xaa;" horiz-adv-x="409" 
d="M209 540c21.333 0 39.333 6.83301 54 20.5s22 30.167 22 49.5s-7.33301 35.833 -22 49.5s-32.667 20.5 -54 20.5s-39.333 -6.83301 -54 -20.5s-22 -30.167 -22 -49.5s7.33301 -35.833 22 -49.5s32.667 -20.5 54 -20.5zM281 456v34h-2
c-19.333 -29.333 -52.666 -44 -99.999 -44c-48.667 0 -88.834 16 -120.501 48s-47.5 70.667 -47.5 116s15.667 84 47 116s71.333 48 120 48c44 0 78.333 -13.333 103 -40v30h118v-308h-118z" />
    <glyph glyph-name="guillemotleft" unicode="&#xab;" horiz-adv-x="603" 
d="M421 320l129 -174l-103 -72l-172 246l172 246l100 -69zM172 320l129 -174l-103 -72l-172 246l172 246l100 -69z" />
    <glyph glyph-name="logicalnot" unicode="&#xac;" 
d="M449 141v161h-362v150h512v-311h-150z" />
    <glyph glyph-name="uni00AD" unicode="&#xad;" horiz-adv-x="392" 
d="M53 396h286v-150h-286v150z" />
    <glyph glyph-name="registered" unicode="&#xae;" horiz-adv-x="800" 
d="M400 -20c-110 0 -203.501 38.499 -280.501 115.499s-115.5 170.5 -115.5 280.5c0 110.667 38.333 204.667 115 282s170.334 116 281.001 116c110 0 203.5 -38.667 280.5 -116s115.5 -171.333 115.5 -282c0 -109.333 -38.5 -202.666 -115.5 -279.999
s-170.5 -116 -280.5 -116zM399.999 73.999c86 0 157.833 28.5 215.5 85.5s86.5 129.167 86.5 216.5c0 88 -28.833 160.667 -86.5 218s-129.5 86 -215.5 86c-86.667 0 -158.667 -28.5 -216 -85.5s-86 -129.833 -86 -218.5c0 -87.333 28.667 -159.5 86 -216.5
s129.333 -85.5 216 -85.5zM489.999 348.999l100 -174h-100l-92 174h-64v-174h-92v412h200c54 0 94.167 -8.33301 120.5 -25s39.5 -50.334 39.5 -101.001c0 -37.333 -9.33301 -64.666 -28 -81.999s-46.667 -27.333 -84 -30zM333.999 410.999h110.001
c25.333 0 43.666 4.16699 54.999 12.5s17 24.833 17 49.5c0 10 -2.66699 18 -8 24s-13.5 10.167 -24.5 12.5s-20.333 3.83301 -28 4.5s-18.5 1 -32.5 1h-89v-104z" />
    <glyph glyph-name="macron" unicode="&#xaf;" horiz-adv-x="603" 
d="M75 752h452v-107h-452v107z" />
    <glyph glyph-name="degree" unicode="&#xb0;" horiz-adv-x="400" 
d="M350 623c0 -40.667 -14.833 -75.667 -44.5 -105s-65.167 -44 -106.5 -44c-42 0 -77.333 14.5 -106 43.5s-43 64.167 -43 105.5c-1.33301 41.333 12.667 76.833 42 106.5s65 44.5 107 44.5c41.333 0 76.833 -14.833 106.5 -44.5s44.5 -65.167 44.5 -106.5zM265 624
c0 17.333 -6.5 32.5 -19.5 45.5s-28.5 19.5 -46.5 19.5c-17.333 0 -32.5 -6.5 -45.5 -19.5s-19.167 -28.167 -18.5 -45.5c0 -18 6.33301 -33.333 19 -46s28 -19 46 -19s33.333 6.33301 46 19s19 28 19 46z" />
    <glyph glyph-name="plusminus" unicode="&#xb1;" 
d="M268 512v142h150v-142h181v-150h-181v-142h-150v142h-181v150h181zM87 150h512v-150h-512v150z" />
    <glyph glyph-name="twosuperior" unicode="&#xb2;" horiz-adv-x="412" 
d="M313 479l-75.998 -66.002h160v-99h-394l201 201c37.333 37.333 56 74.333 56 111c0 14.667 -5.33301 28 -16 40s-24 18 -40 18c-16.667 0 -29.834 -5.16699 -39.501 -15.5s-14.5 -23.5 -14.5 -39.5c0 -3.33301 0.666992 -9.66602 2 -18.999h-140
c2 52.667 20 94.834 54 126.501s79.667 47.5 137 47.5c53.333 0 98.166 -14.833 134.499 -44.5s54.5 -68.5 54.5 -116.5c0 -30.667 -6.33301 -56.667 -19 -78s-32.667 -43.333 -60 -66z" />
    <glyph glyph-name="threesuperior" unicode="&#xb3;" horiz-adv-x="412" 
d="M4 461h129.999c0 -18 6.33301 -33 19 -45s29 -18 49 -18s36.333 5.5 49 16.5s19 25.5 19 43.5c0 16.667 -6.66699 30.834 -20 42.501s-29 17.5 -47 17.5c-2.66699 0 -5.16699 -0.166992 -7.5 -0.5s-5 -0.833008 -8 -1.5s-5.5 -1 -7.5 -1v78h13
c16.667 0 30.167 4.5 40.5 13.5s15.5 21.167 15.5 36.5c0 13.333 -4.66699 24.166 -14 32.499s-21.333 12.5 -36 12.5c-15.333 0 -27.833 -5 -37.5 -15s-14.5 -22.333 -14.5 -37h-118c4.66699 46.667 23.334 83 56.001 109s74.667 39 126 39
c45.333 0 82.833 -11.667 112.5 -35s44.5 -55.333 44.5 -96c0 -44 -17.333 -75 -52 -93c24.667 -5.33301 44.167 -19.5 58.5 -42.5s21.5 -46.833 21.5 -71.5c0 -46.667 -18.667 -83.167 -56 -109.5s-82 -39.5 -134 -39.5c-61.333 0 -110 17 -146 51
c-16 14.667 -29.5 32.5 -40.5 53.5s-16.167 40.833 -15.5 59.5z" />
    <glyph glyph-name="acute" unicode="&#xb4;" horiz-adv-x="402" 
d="M327 740l-171 -151l-81 59l141 172z" />
    <glyph glyph-name="mu" unicode="&#xb5;" horiz-adv-x="659" 
d="M57 513l182 -0.000976562v-274c0 -36 6.5 -63.5 19.5 -82.5s36.833 -28.5 71.5 -28.5s58.5 9.5 71.5 28.5s19.5 46.5 19.5 82.5v274h182v-309c0 -41.333 -7.5 -77.166 -22.5 -107.499s-34.833 -53.333 -59.5 -69s-49.5 -27 -74.5 -34s-50.5 -10.5 -76.5 -10.5
c-53.333 0 -97 16.333 -131 49v-288h-182v769z" />
    <glyph glyph-name="paragraph" unicode="&#xb6;" 
d="M263 754l377 -0.000976562v-91h-66v-833h-101v832h-93v-832h-101v460c-64.667 6 -117.334 25.333 -158.001 58s-65 85 -73 157c-6.66699 60.667 12.833 117.334 58.5 170.001s97.834 79 156.501 79z" />
    <glyph glyph-name="periodcentered" unicode="&#xb7;" horiz-adv-x="343" 
d="M172 373c32.667 0 60.334 -11.333 83.001 -34s34 -50.334 34 -83.001c0 -32 -11.333 -59.5 -34 -82.5s-50.334 -34.5 -83.001 -34.5s-60.334 11.5 -83.001 34.5s-34 50.5 -34 82.5c0 32.667 11.333 60.334 34 83.001s50.334 34 83.001 34z" />
    <glyph glyph-name="cedilla" unicode="&#xb8;" horiz-adv-x="380" 
d="M304 -94l-151 -143l-78 49l130 158z" />
    <glyph glyph-name="onesuperior" unicode="&#xb9;" horiz-adv-x="412" 
d="M163 667h-70v99h197v-452h-127v353z" />
    <glyph glyph-name="ordmasculine" unicode="&#xba;" horiz-adv-x="410" 
d="M205 774c56 0 103.5 -14.667 142.5 -44s58.5 -69.333 58.5 -120s-19.5 -90.667 -58.5 -120s-86.5 -44 -142.5 -44s-103.333 14.667 -142 44s-58 69.333 -58 120s19.333 90.667 58 120s86 44 142 44zM205 679c-20.667 0 -38.332 -6.66699 -52.999 -20
s-22 -29.666 -22 -48.999s7.16699 -35.666 21.5 -48.999s32.166 -20 53.499 -20s39.333 6.66699 54 20s22 29.666 22 48.999s-7.5 35.666 -22.5 48.999s-32.833 20 -53.5 20z" />
    <glyph glyph-name="guillemotright" unicode="&#xbb;" horiz-adv-x="603" 
d="M53 146l129 174l-126 177l100 69l172 -246l-172 -246zM302 146l129 174l-126 177l100 69l172 -246l-172 -246z" />
    <glyph glyph-name="onequarter" unicode="&#xbc;" horiz-adv-x="1029" 
d="M752 183v174h-2l-114 -174h116zM645 754h98l-438 -754h-98zM170 655h-70v99h197v-452h-127v353zM870 184h59v-90h-59v-94h-118v94h-238v75l189 283h167v-268z" />
    <glyph glyph-name="onehalf" unicode="&#xbd;" horiz-adv-x="1029" 
d="M170 655h-70v99h197v-452h-127v353zM845 165l-75.998 -66.001h160v-99h-394l201 201c37.333 37.333 56 74.333 56 111c0 14.667 -5.33301 28 -16 40s-24 18 -40 18c-16.667 0 -29.834 -5.16699 -39.501 -15.5s-14.5 -23.5 -14.5 -39.5
c0 -3.33301 0.666992 -9.66602 2 -18.999h-140c2 53.333 20 95.333 54 126c33.333 32 79 48 137 48c53.333 0 98.166 -14.833 134.499 -44.5s54.5 -68.5 54.5 -116.5c0 -30.667 -6.33301 -56.667 -19 -78s-32.667 -43.333 -60 -66zM617.002 753.999h98l-438 -754h-98z" />
    <glyph glyph-name="threequarters" unicode="&#xbe;" horiz-adv-x="1029" 
d="M802 183v174h-2l-114 -174h116zM731 754h98l-438 -754h-98zM920 184h59v-90h-59v-94h-118v94h-238v75l189 283h167v-268zM226 563h13.001c16.667 0 30.167 4.5 40.5 13.5s15.5 21.167 15.5 36.5c0 13.333 -4.66699 24.166 -14 32.499s-21.333 12.5 -36 12.5
c-15.333 0 -27.833 -5 -37.5 -15s-14.5 -22.333 -14.5 -37h-118c4.66699 46.667 23.667 83 57 109c32 26 73.667 39 125 39c45.333 0 82.833 -11.667 112.5 -35s44.5 -55.333 44.5 -96c0 -44 -17.333 -75 -52 -93c24.667 -5.33301 44.167 -19.5 58.5 -42.5
s21.5 -46.833 21.5 -71.5c0 -46.667 -18.667 -83.167 -56 -109.5s-82 -39.5 -134 -39.5c-61.333 0 -110 17 -146 51c-16 14.667 -29.5 32.5 -40.5 53.5s-16.167 40.833 -15.5 59.5h130c0 -18.667 6.33301 -33.667 19 -45c13.333 -12 29.666 -18 48.999 -18
c20 0 36.333 5.5 49 16.5s19 25.5 19 43.5c0 16.667 -6.66699 30.834 -20 42.501s-29 17.5 -47 17.5c-2.66699 0 -5.16699 -0.166992 -7.5 -0.5s-5 -0.833008 -8 -1.5s-5.5 -1 -7.5 -1v78z" />
    <glyph glyph-name="questiondown" unicode="&#xbf;" horiz-adv-x="595" 
d="M409 258l0.00195312 -193.997c-15.333 3.33301 -29.333 5 -42 5c-32 0 -61.5 -8.83301 -88.5 -26.5s-40.5 -41.834 -40.5 -72.501c0 -20.667 7 -38.334 21 -53.001s31.333 -22 52 -22c22 0 39.167 7 51.5 21s18.5 32.333 18.5 55h199
c-0.666992 -72.667 -27.834 -130 -81.501 -172s-117.834 -63 -192.501 -63c-68.667 0 -127 20.667 -175 62c-26 21.333 -46.833 47.5 -62.5 78.5s-23.5 62.5 -23.5 94.5c0 54 16.5 99.167 49.5 135.5s76.833 63.166 131.5 80.499v71h183zM314.002 532.003
c32.667 0 60.334 -11.333 83.001 -34s34 -50.334 34 -83.001c0 -32 -11.333 -59.5 -34 -82.5s-50.334 -34.5 -83.001 -34.5s-60.334 11.5 -83.001 34.5s-34 50.5 -34 82.5c0 32.667 11.333 60.334 34 83.001s50.334 34 83.001 34z" />
    <glyph glyph-name="Agrave" unicode="&#xc0;" horiz-adv-x="781" 
d="M526 131h-270l-52 -131h-208l290 754h214l284 -754h-209zM473 281l-80 240h-2l-81 -240h163zM245 951l111 80l141 -172l-81 -59z" />
    <glyph glyph-name="Aacute" unicode="&#xc1;" horiz-adv-x="781" 
d="M526 131h-270l-52 -131h-208l290 754h214l284 -754h-209zM473 281l-80 240h-2l-81 -240h163zM537 951l-171 -151l-81 59l141 172z" />
    <glyph glyph-name="Acircumflex" unicode="&#xc2;" horiz-adv-x="781" 
d="M526 131h-270l-52 -131h-208l290 754h214l284 -754h-209zM473 281l-80 240h-2l-81 -240h163zM171 876l218 164l221 -164l-77 -84l-144 111l-144 -111z" />
    <glyph glyph-name="Atilde" unicode="&#xc3;" horiz-adv-x="781" 
d="M526 131h-270l-52 -131h-208l290 754h214l284 -754h-209zM473 281l-80 240h-2l-81 -240h163zM274 827l-82.001 -0.00390625l-1 11c0 34.667 7.33301 64.334 22 89.001c22 37.333 51.667 56 89 56c18 0 46.5 -5.66699 85.5 -17s64.833 -17 77.5 -17
c11.333 0 19.666 2.83301 24.999 8.5s10.333 14.834 15 27.501h85c-3.33301 -41.333 -16 -78 -38 -110s-52.667 -48 -92 -48c-17.333 0 -43.166 6.16699 -77.499 18.5s-59.166 18.5 -74.499 18.5c-7.33301 0 -13.5 -2.16699 -18.5 -6.5s-8.16699 -8.16602 -9.5 -11.499
s-3.33301 -9.66602 -6 -18.999z" />
    <glyph glyph-name="Adieresis" unicode="&#xc4;" horiz-adv-x="781" 
d="M526 131h-270l-52 -131h-208l290 754h214l284 -754h-209zM473 281l-80 240h-2l-81 -240h163zM263 1011c27.333 0 50.5 -9.5 69.5 -28.5s28.5 -42.167 28.5 -69.5s-9.5 -50.5 -28.5 -69.5s-42.167 -28.5 -69.5 -28.5s-50.666 9.5 -69.999 28.5s-29 42.167 -29 69.5
s9.66699 50.5 29 69.5s42.666 28.5 69.999 28.5zM519 1011c27.333 0 50.5 -9.5 69.5 -28.5s28.5 -42.167 28.5 -69.5s-9.5 -50.5 -28.5 -69.5s-42.167 -28.5 -69.5 -28.5s-50.666 9.5 -69.999 28.5s-29 42.167 -29 69.5s9.66699 50.5 29 69.5s42.666 28.5 69.999 28.5z" />
    <glyph glyph-name="Aring" unicode="&#xc5;" horiz-adv-x="781" 
d="M526 131h-270l-52 -131h-208l290 754h214l284 -754h-209zM473 281l-80 240h-2l-81 -240h163zM389 1011c43.333 0 80 -9.16699 110 -27.5s45 -47.5 45 -87.5c0 -39.333 -14.833 -68.333 -44.5 -87s-65.5 -28 -107.5 -28c-42.667 0 -79.167 9 -109.5 27s-45.5 47 -45.5 87
s14.667 69.333 44 88s65.333 28 108 28zM391 939c-16 0 -29.833 -3.5 -41.5 -10.5s-17.5 -17.833 -17.5 -32.5s5.83301 -25.5 17.5 -32.5s25.5 -10.5 41.5 -10.5c15.333 0 28.833 3.5 40.5 10.5s17.5 17.833 17.5 32.5s-5.83301 25.5 -17.5 32.5s-25.167 10.5 -40.5 10.5z
" />
    <glyph glyph-name="AE" unicode="&#xc6;" horiz-adv-x="1026" 
d="M470 281l-81 224l-85 -224h166zM572 0l-49 131h-273l-47 -131h-207l291 754h462l61 -166h-248l46 -126h247l63 -166h-249l49 -130h248l60 -166h-454z" />
    <glyph glyph-name="Ccedilla" unicode="&#xc7;" horiz-adv-x="660" 
d="M603 736l-0.00390625 -235c-20 26.667 -45.167 47.167 -75.5 61.5s-62.5 21.5 -96.5 21.5c-59.333 0 -107.666 -20 -144.999 -60s-56 -89.667 -56 -149c0 -60 18.833 -109.167 56.5 -147.5s86.834 -57.5 147.501 -57.5c32 0 63 7.16699 93 21.5s55.333 33.833 76 58.5
v-235c-76 -23.333 -133.667 -35 -173 -35c-107.333 0 -201.666 37 -282.999 111c-80.667 72.667 -121 167.667 -121 285c0 108 37 200 111 276c37.333 38 81.333 67.833 132 89.5s102.334 32.5 155.001 32.5c58 0 117.667 -12.667 179 -38zM468.996 -94l-151 -143l-78 49
l130 158z" />
    <glyph glyph-name="Egrave" unicode="&#xc8;" horiz-adv-x="550" 
d="M493 588h-233v-126h221v-166h-221v-130h233v-166h-429v754h429v-166zM149 951l111 80l141 -172l-81 -59z" />
    <glyph glyph-name="Eacute" unicode="&#xc9;" horiz-adv-x="550" 
d="M493 588h-233v-126h221v-166h-221v-130h233v-166h-429v754h429v-166zM401 951l-171 -151l-81 59l141 172z" />
    <glyph glyph-name="Ecircumflex" unicode="&#xca;" horiz-adv-x="550" 
d="M493 588h-233v-126h221v-166h-221v-130h233v-166h-429v754h429v-166zM55 876l218 164l221 -164l-77 -84l-144 111l-144 -111z" />
    <glyph glyph-name="Edieresis" unicode="&#xcb;" horiz-adv-x="550" 
d="M493 588h-233v-126h221v-166h-221v-130h233v-166h-429v754h429v-166zM147 1011c27.333 0 50.5 -9.5 69.5 -28.5s28.5 -42.167 28.5 -69.5s-9.5 -50.5 -28.5 -69.5s-42.167 -28.5 -69.5 -28.5s-50.666 9.5 -69.999 28.5s-29 42.167 -29 69.5s9.66699 50.5 29 69.5
s42.666 28.5 69.999 28.5zM403 1011c27.333 0 50.5 -9.5 69.5 -28.5s28.5 -42.167 28.5 -69.5s-9.5 -50.5 -28.5 -69.5s-42.167 -28.5 -69.5 -28.5s-50.666 9.5 -69.999 28.5s-29 42.167 -29 69.5s9.66699 50.5 29 69.5s42.666 28.5 69.999 28.5z" />
    <glyph glyph-name="Igrave" unicode="&#xcc;" horiz-adv-x="324" 
d="M260 754v-754h-196v754h196zM21 951l111 80l141 -172l-81 -59z" />
    <glyph glyph-name="Iacute" unicode="&#xcd;" horiz-adv-x="324" 
d="M260 754v-754h-196v754h196zM303 951l-171 -151l-81 59l141 172z" />
    <glyph glyph-name="Icircumflex" unicode="&#xce;" horiz-adv-x="324" 
d="M260 754v-754h-196v754h196zM-43 876l218 164l221 -164l-77 -84l-144 111l-144 -111z" />
    <glyph glyph-name="Idieresis" unicode="&#xcf;" horiz-adv-x="324" 
d="M260 754v-754h-196v754h196zM34 1011c26.667 0 49.667 -9.5 69 -28.5s29 -42.167 29 -69.5s-9.5 -50.5 -28.5 -69.5s-42.167 -28.5 -69.5 -28.5s-50.666 9.5 -69.999 28.5s-29 42.167 -29 69.5s9.66699 50.5 29 69.5s42.666 28.5 69.999 28.5zM290 1011
c26.667 0 49.667 -9.5 69 -28.5s29 -42.167 29 -69.5s-9.5 -50.5 -28.5 -69.5s-42.167 -28.5 -69.5 -28.5s-50.666 9.5 -69.999 28.5s-29 42.167 -29 69.5s9.66699 50.5 29 69.5s42.666 28.5 69.999 28.5z" />
    <glyph glyph-name="Eth" unicode="&#xd0;" horiz-adv-x="752" 
d="M260 588v-125h110v-154h-110v-143h44c62.667 0 114.5 17.667 155.5 53s61.5 88 61.5 158c0 66 -19.667 117.667 -59 155s-91.333 56 -156 56h-46zM64 0l-0.000976562 309h-84v154h84v291h254c118.667 0 216.167 -35.333 292.5 -106s114.5 -161 114.5 -271
c0 -109.333 -38.667 -199.5 -116 -270.5s-173.666 -106.5 -288.999 -106.5h-256z" />
    <glyph glyph-name="Ntilde" unicode="&#xd1;" horiz-adv-x="881" 
d="M64 0v754h196l359 -461h2v461h196v-754h-196l-359 462h-2v-462h-196zM324 827l-82.001 -0.00390625l-1 11c0 34.667 7.33301 64.334 22 89.001c22 37.333 51.667 56 89 56c18 0 46.5 -5.66699 85.5 -17s64.833 -17 77.5 -17c11.333 0 19.666 2.83301 24.999 8.5
s10.333 14.834 15 27.501h85c-3.33301 -41.333 -16 -78 -38 -110s-52.667 -48 -92 -48c-17.333 0 -43.166 6.16699 -77.499 18.5s-59.166 18.5 -74.499 18.5c-7.33301 0 -13.5 -2.16699 -18.5 -6.5s-8.16699 -8.16602 -9.5 -11.499s-3.33301 -9.66602 -6 -18.999z" />
    <glyph glyph-name="Ograve" unicode="&#xd2;" horiz-adv-x="887" 
d="M443 779c72.667 0 140.667 -16.167 204 -48.5s114.666 -78.5 153.999 -138.5s59 -127 59 -201c0 -122 -39.167 -221.833 -117.5 -299.5s-178.166 -116.5 -299.499 -116.5s-221.166 38.833 -299.499 116.5s-117.5 177.5 -117.5 299.5c0 74 19.667 141 59 201
s90.666 106.167 153.999 138.5s131.333 48.5 204 48.5zM443 589c-58 0 -107.998 -20 -149.998 -60s-63 -86.333 -63 -139c0 -64 20.667 -117.5 62 -160.5s91.666 -64.5 150.999 -64.5s109.666 21.5 150.999 64.5s62 96.5 62 160.5c0 52.667 -21 99 -63 139s-92 60 -150 60z
M298.002 951l111 80l141 -172l-81 -59z" />
    <glyph glyph-name="Oacute" unicode="&#xd3;" horiz-adv-x="887" 
d="M443 779c72.667 0 140.667 -16.167 204 -48.5s114.666 -78.5 153.999 -138.5s59 -127 59 -201c0 -122 -39.167 -221.833 -117.5 -299.5s-178.166 -116.5 -299.499 -116.5s-221.166 38.833 -299.499 116.5s-117.5 177.5 -117.5 299.5c0 74 19.667 141 59 201
s90.666 106.167 153.999 138.5s131.333 48.5 204 48.5zM443 589c-58 0 -107.998 -20 -149.998 -60s-63 -86.333 -63 -139c0 -64 20.667 -117.5 62 -160.5s91.666 -64.5 150.999 -64.5s109.666 21.5 150.999 64.5s62 96.5 62 160.5c0 52.667 -21 99 -63 139s-92 60 -150 60z
M590.002 951l-171 -151l-81 59l141 172z" />
    <glyph glyph-name="Ocircumflex" unicode="&#xd4;" horiz-adv-x="887" 
d="M443 779c72.667 0 140.667 -16.167 204 -48.5s114.666 -78.5 153.999 -138.5s59 -127 59 -201c0 -122 -39.167 -221.833 -117.5 -299.5s-178.166 -116.5 -299.499 -116.5s-221.166 38.833 -299.499 116.5s-117.5 177.5 -117.5 299.5c0 74 19.667 141 59 201
s90.666 106.167 153.999 138.5s131.333 48.5 204 48.5zM443 589c-58 0 -107.998 -20 -149.998 -60s-63 -86.333 -63 -139c0 -64 20.667 -117.5 62 -160.5s91.666 -64.5 150.999 -64.5s109.666 21.5 150.999 64.5s62 96.5 62 160.5c0 52.667 -21 99 -63 139s-92 60 -150 60z
M224.002 876l218 164l221 -164l-77 -84l-144 111l-144 -111z" />
    <glyph glyph-name="Otilde" unicode="&#xd5;" horiz-adv-x="887" 
d="M443 779c72.667 0 140.667 -16.167 204 -48.5s114.666 -78.5 153.999 -138.5s59 -127 59 -201c0 -122 -39.167 -221.833 -117.5 -299.5s-178.166 -116.5 -299.499 -116.5s-221.166 38.833 -299.499 116.5s-117.5 177.5 -117.5 299.5c0 74 19.667 141 59 201
s90.666 106.167 153.999 138.5s131.333 48.5 204 48.5zM443 589c-58 0 -107.998 -20 -149.998 -60s-63 -86.333 -63 -139c0 -64 20.667 -117.5 62 -160.5s91.666 -64.5 150.999 -64.5s109.666 21.5 150.999 64.5s62 96.5 62 160.5c0 52.667 -21 99 -63 139s-92 60 -150 60z
M327.002 827l-82.001 -0.00390625l-1 11c0 34.667 7.33301 64.334 22 89.001c22 37.333 51.667 56 89 56c18 0 46.5 -5.66699 85.5 -17s64.833 -17 77.5 -17c11.333 0 19.666 2.83301 24.999 8.5s10.333 14.834 15 27.501h85c-3.33301 -41.333 -16 -78 -38 -110
s-52.667 -48 -92 -48c-17.333 0 -43.166 6.16699 -77.499 18.5s-59.166 18.5 -74.499 18.5c-7.33301 0 -13.5 -2.16699 -18.5 -6.5s-8.16699 -8.16602 -9.5 -11.499s-3.33301 -9.66602 -6 -18.999z" />
    <glyph glyph-name="Odieresis" unicode="&#xd6;" horiz-adv-x="887" 
d="M443 779c72.667 0 140.667 -16.167 204 -48.5s114.666 -78.5 153.999 -138.5s59 -127 59 -201c0 -122 -39.167 -221.833 -117.5 -299.5s-178.166 -116.5 -299.499 -116.5s-221.166 38.833 -299.499 116.5s-117.5 177.5 -117.5 299.5c0 74 19.667 141 59 201
s90.666 106.167 153.999 138.5s131.333 48.5 204 48.5zM443 589c-58 0 -107.998 -20 -149.998 -60s-63 -86.333 -63 -139c0 -64 20.667 -117.5 62 -160.5s91.666 -64.5 150.999 -64.5s109.666 21.5 150.999 64.5s62 96.5 62 160.5c0 52.667 -21 99 -63 139s-92 60 -150 60z
M316.002 1011c26.667 0 49.667 -9.5 69 -28.5s29 -42.167 29 -69.5s-9.5 -50.5 -28.5 -69.5s-42.167 -28.5 -69.5 -28.5s-50.666 9.5 -69.999 28.5s-29 42.167 -29 69.5s9.66699 50.5 29 69.5s42.666 28.5 69.999 28.5zM572.002 1011c26.667 0 49.667 -9.5 69 -28.5
s29 -42.167 29 -69.5s-9.5 -50.5 -28.5 -69.5s-42.167 -28.5 -69.5 -28.5s-50.666 9.5 -69.999 28.5s-29 42.167 -29 69.5s9.66699 50.5 29 69.5s42.666 28.5 69.999 28.5z" />
    <glyph glyph-name="multiply" unicode="&#xd7;" 
d="M238 256l-151 151l106 106l150 -152l149 152l106 -106l-149 -151l150 -150l-106 -106l-150 150l-150 -150l-106 106z" />
    <glyph glyph-name="Oslash" unicode="&#xd8;" horiz-adv-x="887" 
d="M260 275l290 285c-33.333 19.333 -69 29 -107 29c-58 0 -108 -20 -150 -60s-63 -86.333 -63 -139c0 -44 10 -82.333 30 -115zM630 481l-292.998 -286.999c31.333 -19.333 66.666 -29 105.999 -29c59.333 0 109.666 21.5 150.999 64.5s62 96.5 62 160.5
c0 33.333 -8.66699 63.666 -26 90.999zM21.002 40.001l90.001 89.001c-56.667 73.333 -85 160.666 -85 261.999c0 74 19.667 141 59 201s90.666 106.167 153.999 138.5s131.333 48.5 204 48.5c92 0 175.333 -26 250 -78l95 93l78 -80l-90 -89
c56 -66.667 84 -144.667 84 -234c0 -122 -39.167 -221.833 -117.5 -299.5s-178.166 -116.5 -299.499 -116.5c-96.667 0 -180.334 25.667 -251.001 77l-93 -92z" />
    <glyph glyph-name="Ugrave" unicode="&#xd9;" horiz-adv-x="778" 
d="M522 754h196v-424c0 -61.333 -4.83301 -112.833 -14.5 -154.5s-31.167 -78.834 -64.5 -111.501c-56.667 -56 -140 -84 -250 -84s-193.333 28 -250 84c-33.333 32.667 -54.833 69.834 -64.5 111.501s-14.5 93.167 -14.5 154.5v424h196v-397c0 -24 0.5 -44 1.5 -60
s4 -34 9 -54s12 -36 21 -48s22.167 -22.167 39.5 -30.5s38 -12.5 62 -12.5s44.667 4.16699 62 12.5s30.5 18.5 39.5 30.5s16 28 21 48s8 38 9 54s1.5 36 1.5 60v397zM243 951l111 80l141 -172l-81 -59z" />
    <glyph glyph-name="Uacute" unicode="&#xda;" horiz-adv-x="778" 
d="M522 754h196v-424c0 -61.333 -4.83301 -112.833 -14.5 -154.5s-31.167 -78.834 -64.5 -111.501c-56.667 -56 -140 -84 -250 -84s-193.333 28 -250 84c-33.333 32.667 -54.833 69.834 -64.5 111.501s-14.5 93.167 -14.5 154.5v424h196v-397c0 -24 0.5 -44 1.5 -60
s4 -34 9 -54s12 -36 21 -48s22.167 -22.167 39.5 -30.5s38 -12.5 62 -12.5s44.667 4.16699 62 12.5s30.5 18.5 39.5 30.5s16 28 21 48s8 38 9 54s1.5 36 1.5 60v397zM535 951l-171 -151l-81 59l141 172z" />
    <glyph glyph-name="Ucircumflex" unicode="&#xdb;" horiz-adv-x="778" 
d="M522 754h196v-424c0 -61.333 -4.83301 -112.833 -14.5 -154.5s-31.167 -78.834 -64.5 -111.501c-56.667 -56 -140 -84 -250 -84s-193.333 28 -250 84c-33.333 32.667 -54.833 69.834 -64.5 111.501s-14.5 93.167 -14.5 154.5v424h196v-397c0 -24 0.5 -44 1.5 -60
s4 -34 9 -54s12 -36 21 -48s22.167 -22.167 39.5 -30.5s38 -12.5 62 -12.5s44.667 4.16699 62 12.5s30.5 18.5 39.5 30.5s16 28 21 48s8 38 9 54s1.5 36 1.5 60v397zM169 876l218 164l221 -164l-77 -84l-144 111l-144 -111z" />
    <glyph glyph-name="Udieresis" unicode="&#xdc;" horiz-adv-x="778" 
d="M522 754h196v-424c0 -61.333 -4.83301 -112.833 -14.5 -154.5s-31.167 -78.834 -64.5 -111.501c-56.667 -56 -140 -84 -250 -84s-193.333 28 -250 84c-33.333 32.667 -54.833 69.834 -64.5 111.501s-14.5 93.167 -14.5 154.5v424h196v-397c0 -24 0.5 -44 1.5 -60
s4 -34 9 -54s12 -36 21 -48s22.167 -22.167 39.5 -30.5s38 -12.5 62 -12.5s44.667 4.16699 62 12.5s30.5 18.5 39.5 30.5s16 28 21 48s8 38 9 54s1.5 36 1.5 60v397zM261 1011c27.333 0 50.5 -9.5 69.5 -28.5s28.5 -42.167 28.5 -69.5s-9.5 -50.5 -28.5 -69.5
s-42.167 -28.5 -69.5 -28.5s-50.666 9.5 -69.999 28.5s-29 42.167 -29 69.5s9.66699 50.5 29 69.5s42.666 28.5 69.999 28.5zM517 1011c27.333 0 50.5 -9.5 69.5 -28.5s28.5 -42.167 28.5 -69.5s-9.5 -50.5 -28.5 -69.5s-42.167 -28.5 -69.5 -28.5s-50.666 9.5 -69.999 28.5
s-29 42.167 -29 69.5s9.66699 50.5 29 69.5s42.666 28.5 69.999 28.5z" />
    <glyph glyph-name="Yacute" unicode="&#xdd;" horiz-adv-x="714" 
d="M259 362l-278 392h235l141 -205l141 205h235l-278 -392v-362h-196v362zM523 951l-171 -151l-81 59l141 172z" />
    <glyph glyph-name="Thorn" unicode="&#xde;" horiz-adv-x="661" 
d="M64 0v754h196v-120h104c84.667 0 151.5 -20.5 200.5 -61.5s73.5 -103.167 73.5 -186.5c0 -170.667 -89 -256 -267 -256h-111v-130h-196zM260 476l-0.00488281 -187.999h33c18.667 0 32.834 0.166992 42.501 0.5s22 2.16602 37 5.49902s26.167 8 33.5 14
s13.833 15 19.5 27s8.5 27 8.5 45c0 18.667 -2.66699 34.167 -8 46.5s-11.666 21.833 -18.999 28.5s-18.166 11.5 -32.499 14.5s-26.666 4.83301 -36.999 5.5s-25.166 1 -44.499 1h-33z" />
    <glyph glyph-name="germandbls" unicode="&#xdf;" horiz-adv-x="651" 
d="M60 442l-0.00195312 147.002c0 86.667 20.667 148.334 62 185.001c48 44 114 66 198 66c71.333 0 130.666 -19.333 177.999 -58s71 -93 71 -163c0 -34 -7.33301 -63 -22 -87s-37 -47.333 -67 -70c51.333 -20.667 89 -47 113 -79s36 -76.667 36 -134
c0 -37.333 -6.83301 -74.5 -20.5 -111.5s-33.5 -66.5 -59.5 -88.5c-50 -44 -121.667 -66 -215 -66h-39v155c38.667 -1.33301 70.834 9 96.501 31s38.5 52 38.5 90c0 37.333 -13.167 67.666 -39.5 90.999s-58.166 33.666 -95.499 30.999v145c30 -1.33301 54 4.66699 72 18
s27 34.333 27 63c0 23.333 -6.83301 41.833 -20.5 55.5s-32.167 20.5 -55.5 20.5c-17.333 0 -31.5 -3 -42.5 -9s-18.667 -15.333 -23 -28s-7.16602 -24.334 -8.49902 -35.001s-2 -24.667 -2 -42v-569h-182v297h-52v145h52z" />
    <glyph glyph-name="agrave" unicode="&#xe0;" horiz-adv-x="682" 
d="M328 372c-36 0 -64.5 -11.167 -85.5 -33.5s-31.5 -49.833 -31.5 -82.5c0 -33.333 10.5 -60.833 31.5 -82.5s49.5 -32.5 85.5 -32.5s64.5 10.833 85.5 32.5s31.5 49.167 31.5 82.5c0 32.667 -10.5 60.167 -31.5 82.5s-49.5 33.5 -85.5 33.5zM621 513v-512.999h-182v57h-2
c-15.333 -24.667 -37 -43.167 -65 -55.5s-58 -18.5 -90 -18.5c-74.667 0 -136.5 26.833 -185.5 80.5s-73.5 118.167 -73.5 193.5s24.167 139.666 72.5 192.999s109.833 80 184.5 80c68 0 121 -22.333 159 -67v50h182zM215 740.001l111 80l141 -172l-81 -59z" />
    <glyph glyph-name="aacute" unicode="&#xe1;" horiz-adv-x="682" 
d="M328 372c-36 0 -64.5 -11.167 -85.5 -33.5s-31.5 -49.833 -31.5 -82.5c0 -33.333 10.5 -60.833 31.5 -82.5s49.5 -32.5 85.5 -32.5s64.5 10.833 85.5 32.5s31.5 49.167 31.5 82.5c0 32.667 -10.5 60.167 -31.5 82.5s-49.5 33.5 -85.5 33.5zM621 513v-512.999h-182v57h-2
c-15.333 -24.667 -37 -43.167 -65 -55.5s-58 -18.5 -90 -18.5c-74.667 0 -136.5 26.833 -185.5 80.5s-73.5 118.167 -73.5 193.5s24.167 139.666 72.5 192.999s109.833 80 184.5 80c68 0 121 -22.333 159 -67v50h182zM487 740.001l-171 -151l-81 59l141 172z" />
    <glyph glyph-name="acircumflex" unicode="&#xe2;" horiz-adv-x="682" 
d="M328 372c-36 0 -64.5 -11.167 -85.5 -33.5s-31.5 -49.833 -31.5 -82.5c0 -33.333 10.5 -60.833 31.5 -82.5s49.5 -32.5 85.5 -32.5s64.5 10.833 85.5 32.5s31.5 49.167 31.5 82.5c0 32.667 -10.5 60.167 -31.5 82.5s-49.5 33.5 -85.5 33.5zM621 513v-512.999h-182v57h-2
c-15.333 -24.667 -37 -43.167 -65 -55.5s-58 -18.5 -90 -18.5c-74.667 0 -136.5 26.833 -185.5 80.5s-73.5 118.167 -73.5 193.5s24.167 139.666 72.5 192.999s109.833 80 184.5 80c68 0 121 -22.333 159 -67v50h182zM121 665.001l218 164l221 -164l-77 -84l-144 111
l-144 -111z" />
    <glyph glyph-name="atilde" unicode="&#xe3;" horiz-adv-x="682" 
d="M328 372c-36 0 -64.5 -11.167 -85.5 -33.5s-31.5 -49.833 -31.5 -82.5c0 -33.333 10.5 -60.833 31.5 -82.5s49.5 -32.5 85.5 -32.5s64.5 10.833 85.5 32.5s31.5 49.167 31.5 82.5c0 32.667 -10.5 60.167 -31.5 82.5s-49.5 33.5 -85.5 33.5zM621 513v-512.999h-182v57h-2
c-15.333 -24.667 -37 -43.167 -65 -55.5s-58 -18.5 -90 -18.5c-74.667 0 -136.5 26.833 -185.5 80.5s-73.5 118.167 -73.5 193.5s24.167 139.666 72.5 192.999s109.833 80 184.5 80c68 0 121 -22.333 159 -67v50h182zM225 616.001l-82.001 -0.00390625l-1 11
c0 34.667 7.33301 64.334 22 89.001c22 37.333 51.667 56 89 56c18 0 46.5 -5.66699 85.5 -17s64.833 -17 77.5 -17c11.333 0 19.666 2.83301 24.999 8.5s10.333 14.834 15 27.501h85c-3.33301 -41.333 -16 -78 -38 -110s-52.667 -48 -92 -48
c-17.333 0 -43.166 6.16699 -77.499 18.5s-59.166 18.5 -74.499 18.5c-7.33301 0 -13.5 -2.16699 -18.5 -6.5s-8.16699 -8.16602 -9.5 -11.499s-3.33301 -9.66602 -6 -18.999z" />
    <glyph glyph-name="adieresis" unicode="&#xe4;" horiz-adv-x="682" 
d="M328 372c-36 0 -64.5 -11.167 -85.5 -33.5s-31.5 -49.833 -31.5 -82.5c0 -33.333 10.5 -60.833 31.5 -82.5s49.5 -32.5 85.5 -32.5s64.5 10.833 85.5 32.5s31.5 49.167 31.5 82.5c0 32.667 -10.5 60.167 -31.5 82.5s-49.5 33.5 -85.5 33.5zM621 513v-512.999h-182v57h-2
c-15.333 -24.667 -37 -43.167 -65 -55.5s-58 -18.5 -90 -18.5c-74.667 0 -136.5 26.833 -185.5 80.5s-73.5 118.167 -73.5 193.5s24.167 139.666 72.5 192.999s109.833 80 184.5 80c68 0 121 -22.333 159 -67v50h182zM213 800.001c27.333 0 50.5 -9.66699 69.5 -29
s28.5 -42.333 28.5 -69c0 -27.333 -9.5 -50.5 -28.5 -69.5s-42.167 -28.5 -69.5 -28.5s-50.666 9.5 -69.999 28.5s-29 42.167 -29 69.5s9.66699 50.5 29 69.5s42.666 28.5 69.999 28.5zM469 800.001c27.333 0 50.5 -9.66699 69.5 -29s28.5 -42.333 28.5 -69
c0 -27.333 -9.5 -50.5 -28.5 -69.5s-42.167 -28.5 -69.5 -28.5s-50.666 9.5 -69.999 28.5s-29 42.167 -29 69.5s9.66699 50.5 29 69.5s42.666 28.5 69.999 28.5z" />
    <glyph glyph-name="aring" unicode="&#xe5;" horiz-adv-x="682" 
d="M328 372c-36 0 -64.5 -11.167 -85.5 -33.5s-31.5 -49.833 -31.5 -82.5c0 -33.333 10.5 -60.833 31.5 -82.5s49.5 -32.5 85.5 -32.5s64.5 10.833 85.5 32.5s31.5 49.167 31.5 82.5c0 32.667 -10.5 60.167 -31.5 82.5s-49.5 33.5 -85.5 33.5zM621 513v-512.999h-182v57h-2
c-15.333 -24.667 -37 -43.167 -65 -55.5s-58 -18.5 -90 -18.5c-74.667 0 -136.5 26.833 -185.5 80.5s-73.5 118.167 -73.5 193.5s24.167 139.666 72.5 192.999s109.833 80 184.5 80c68 0 121 -22.333 159 -67v50h182zM340 815.001c43.333 0 80 -9.16699 110 -27.5
s45 -47.5 45 -87.5c0 -39.333 -14.833 -68.333 -44.5 -87s-65.5 -28 -107.5 -28c-42.667 0 -79.167 9 -109.5 27s-45.5 47 -45.5 87s14.667 69.333 44 88s65.333 28 108 28zM342 743.001c-16 0 -29.833 -3.5 -41.5 -10.5s-17.5 -17.833 -17.5 -32.5
s5.83301 -25.5 17.5 -32.5s25.5 -10.5 41.5 -10.5c15.333 0 28.833 3.5 40.5 10.5s17.5 17.833 17.5 32.5s-5.83301 25.5 -17.5 32.5s-25.167 10.5 -40.5 10.5z" />
    <glyph glyph-name="ae" unicode="&#xe6;" horiz-adv-x="940" 
d="M541 331h210.999c-4.66699 24 -16.667 43.5 -36 58.5s-41.666 22.5 -66.999 22.5c-27.333 0 -50.833 -7 -70.5 -21s-32.167 -34 -37.5 -60zM273.999 218c-19.333 0 -36.833 -4.66699 -52.5 -14s-23.5 -23 -23.5 -41c0 -18.667 8.5 -32.5 25.5 -41.5
s35.833 -13.5 56.5 -13.5c20 0 40.167 4.5 60.5 13.5s30.5 22.5 30.5 40.5c0 20 -10.333 34.333 -31 43s-42.667 13 -66 13zM917.999 226l-382.997 0.000976562c0 -76 38 -114 114 -114c39.333 0 68.333 15.667 87 47h175c-13.333 -56.667 -45.666 -101 -96.999 -133
c-46.667 -28.667 -101.334 -43 -164.001 -43c-45.333 0 -87.166 8 -125.499 24s-65.166 41.667 -80.499 77c-24.667 -31.333 -55.5 -56 -92.5 -74s-75.5 -27 -115.5 -27c-34.667 0 -67.834 5.66699 -99.501 17s-58.834 30 -81.501 56s-34 56.667 -34 92
c0 57.333 20.333 100.166 61 128.499s90.667 42.5 150 42.5c48 0 93 -8.66699 135 -26v15c0 60 -40.667 90 -122 90c-36.667 0 -84.334 -9.33301 -143.001 -28v136c59.333 16 109 24 149 24c97.333 0 161.666 -30.333 192.999 -91c19.333 29.333 46.666 51.833 81.999 67.5
s72.333 23.5 111 23.5c88.667 0 157.667 -25.5 207 -76.5s74 -120.5 74 -208.5v-19z" />
    <glyph glyph-name="ccedilla" unicode="&#xe7;" horiz-adv-x="483" 
d="M430 500l0.000976562 -153.998c-32.667 24 -64 36 -94 36c-35.333 0 -65 -12 -89 -36s-36 -53.667 -36 -89c0 -36.667 12 -66.834 36 -90.501s54.667 -35.5 92 -35.5c35.333 0 65.666 11.667 90.999 35v-154c-38.667 -19.333 -81.334 -29 -128.001 -29
c-77.333 0 -143.166 25.5 -197.499 76.5s-81.5 114.833 -81.5 191.5c0 81.333 27.5 148.166 82.5 200.499s123.167 78.5 204.5 78.5c44 0 84 -10 120 -30zM356.001 -93.998l-151 -143l-78 49l130 158z" />
    <glyph glyph-name="egrave" unicode="&#xe8;" horiz-adv-x="610" 
d="M207 331h210.999c-4.66699 24 -16.667 43.5 -36 58.5s-41.666 22.5 -66.999 22.5c-27.333 0 -50.833 -7 -70.5 -21s-32.167 -34 -37.5 -60zM586.999 245v-19h-383c0 -76 38 -114 114 -114c39.333 0 68.333 15.667 87 47h175c-13.333 -56.667 -45.666 -101 -96.999 -133
c-46.667 -28.667 -101.334 -43 -164.001 -43c-88 0 -159.5 24 -214.5 72s-82.5 115 -82.5 201c0 84.667 26.167 151.5 78.5 200.5s120.833 73.5 205.5 73.5c88.667 0 157.667 -25.5 207 -76.5s74 -120.5 74 -208.5zM153.999 740l111 80l141 -172l-81 -59z" />
    <glyph glyph-name="eacute" unicode="&#xe9;" horiz-adv-x="610" 
d="M207 331h210.999c-4.66699 24 -16.667 43.5 -36 58.5s-41.666 22.5 -66.999 22.5c-27.333 0 -50.833 -7 -70.5 -21s-32.167 -34 -37.5 -60zM586.999 245v-19h-383c0 -76 38 -114 114 -114c39.333 0 68.333 15.667 87 47h175c-13.333 -56.667 -45.666 -101 -96.999 -133
c-46.667 -28.667 -101.334 -43 -164.001 -43c-88 0 -159.5 24 -214.5 72s-82.5 115 -82.5 201c0 84.667 26.167 151.5 78.5 200.5s120.833 73.5 205.5 73.5c88.667 0 157.667 -25.5 207 -76.5s74 -120.5 74 -208.5zM455.999 740l-171 -151l-81 59l141 172z" />
    <glyph glyph-name="ecircumflex" unicode="&#xea;" horiz-adv-x="610" 
d="M207 331h210.999c-4.66699 24 -16.667 43.5 -36 58.5s-41.666 22.5 -66.999 22.5c-27.333 0 -50.833 -7 -70.5 -21s-32.167 -34 -37.5 -60zM586.999 245v-19h-383c0 -76 38 -114 114 -114c39.333 0 68.333 15.667 87 47h175c-13.333 -56.667 -45.666 -101 -96.999 -133
c-46.667 -28.667 -101.334 -43 -164.001 -43c-88 0 -159.5 24 -214.5 72s-82.5 115 -82.5 201c0 84.667 26.167 151.5 78.5 200.5s120.833 73.5 205.5 73.5c88.667 0 157.667 -25.5 207 -76.5s74 -120.5 74 -208.5zM84.999 665l218 164l221 -164l-77 -84l-144 111l-144 -111
z" />
    <glyph glyph-name="edieresis" unicode="&#xeb;" horiz-adv-x="610" 
d="M207 331h210.999c-4.66699 24 -16.667 43.5 -36 58.5s-41.666 22.5 -66.999 22.5c-27.333 0 -50.833 -7 -70.5 -21s-32.167 -34 -37.5 -60zM586.999 245v-19h-383c0 -76 38 -114 114 -114c39.333 0 68.333 15.667 87 47h175c-13.333 -56.667 -45.666 -101 -96.999 -133
c-46.667 -28.667 -101.334 -43 -164.001 -43c-88 0 -159.5 24 -214.5 72s-82.5 115 -82.5 201c0 84.667 26.167 151.5 78.5 200.5s120.833 73.5 205.5 73.5c88.667 0 157.667 -25.5 207 -76.5s74 -120.5 74 -208.5zM176.999 800c27.333 0 50.5 -9.66699 69.5 -29
s28.5 -42.333 28.5 -69c0 -27.333 -9.5 -50.5 -28.5 -69.5s-42.167 -28.5 -69.5 -28.5s-50.666 9.5 -69.999 28.5s-29 42.167 -29 69.5s9.66699 50.5 29 69.5s42.666 28.5 69.999 28.5zM432.999 800c27.333 0 50.5 -9.66699 69.5 -29s28.5 -42.333 28.5 -69
c0 -27.333 -9.5 -50.5 -28.5 -69.5s-42.167 -28.5 -69.5 -28.5s-50.666 9.5 -69.999 28.5s-29 42.167 -29 69.5s9.66699 50.5 29 69.5s42.666 28.5 69.999 28.5z" />
    <glyph glyph-name="igrave" unicode="&#xec;" horiz-adv-x="302" 
d="M242 513v-513h-182v513h182zM10 740l111 80l141 -172l-81 -59z" />
    <glyph glyph-name="iacute" unicode="&#xed;" horiz-adv-x="302" 
d="M242 513v-513h-182v513h182zM292 740l-171 -151l-81 59l141 172z" />
    <glyph glyph-name="icircumflex" unicode="&#xee;" horiz-adv-x="302" 
d="M242 513v-513h-182v513h182zM-69 665l218 164l221 -164l-77 -84l-144 111l-144 -111z" />
    <glyph glyph-name="idieresis" unicode="&#xef;" horiz-adv-x="302" 
d="M242 513v-513h-182v513h182zM23 800c27.333 0 50.5 -9.66699 69.5 -29s28.5 -42.333 28.5 -69c0 -27.333 -9.5 -50.5 -28.5 -69.5s-42.167 -28.5 -69.5 -28.5s-50.666 9.5 -69.999 28.5s-29 42.167 -29 69.5s9.66699 50.5 29 69.5s42.666 28.5 69.999 28.5zM279 800
c27.333 0 50.5 -9.66699 69.5 -29s28.5 -42.333 28.5 -69c0 -27.333 -9.5 -50.5 -28.5 -69.5s-42.167 -28.5 -69.5 -28.5s-50.666 9.5 -69.999 28.5s-29 42.167 -29 69.5s9.66699 50.5 29 69.5s42.666 28.5 69.999 28.5z" />
    <glyph glyph-name="eth" unicode="&#xf0;" horiz-adv-x="662" 
d="M41 744l105.997 103.999c72.667 -34 125.334 -61.667 158.001 -83l127 67l65 -73l-104 -55l75.5 -65.5c19.667 -17.667 41.5 -40.334 65.5 -68.001s42.833 -54 56.5 -79s25.334 -54.5 35.001 -88.5s14.5 -69.333 14.5 -106c0 -53.333 -8.83301 -100.666 -26.5 -141.999
s-41.5 -74.166 -71.5 -98.499s-63.333 -42.666 -100 -54.999s-75.667 -18.5 -117 -18.5c-33.333 0 -67.166 5.33301 -101.499 16s-66.833 26.5 -97.5 47.5s-55.667 49.667 -75 86s-29 77.166 -29 122.499c0 78.667 27.667 142.167 83 190.5s118.666 72.5 189.999 72.5
c16.667 0 36.334 -2 59.001 -6c-34 42 -71.667 79.333 -113 112l-130 -69l-66 71l109 58c-38 24 -75.667 44 -113 60zM330.997 371.999c-36 0 -64.5 -11.167 -85.5 -33.5s-31.5 -49.833 -31.5 -82.5c0 -33.333 10.5 -60.833 31.5 -82.5s49.5 -32.5 85.5 -32.5
s64.5 10.833 85.5 32.5s31.5 49.167 31.5 82.5c0 32.667 -10.5 60.167 -31.5 82.5s-49.5 33.5 -85.5 33.5z" />
    <glyph glyph-name="ntilde" unicode="&#xf1;" horiz-adv-x="661" 
d="M242 513l-0.00195312 -65.998h2c37.333 55.333 92 83 164 83c66 0 114.667 -18.833 146 -56.5s47 -89.834 47 -156.501v-317h-182v250v15.5v18c0 3 -0.166992 8.66699 -0.5 17s-1 14.5 -2 18.5s-2.5 9.66699 -4.5 17s-4.33301 12.666 -7 15.999l-10.5 12.5
c-4.33301 5 -9.16602 8.66699 -14.499 11s-11.666 4.5 -18.999 6.5s-15.333 3 -24 3c-63.333 0 -95 -39.667 -95 -119v-266h-182v513h182zM213.998 616.002l-82.001 -0.00390625l-1 11c0 34.667 7.33301 64.334 22 89.001c22 37.333 51.667 56 89 56
c18 0 46.5 -5.66699 85.5 -17s64.833 -17 77.5 -17c11.333 0 19.666 2.83301 24.999 8.5s10.333 14.834 15 27.501h85c-3.33301 -41.333 -16 -78 -38 -110s-52.667 -48 -92 -48c-17.333 0 -43.166 6.16699 -77.499 18.5s-59.166 18.5 -74.499 18.5
c-7.33301 0 -13.5 -2.16699 -18.5 -6.5s-8.16699 -8.16602 -9.5 -11.499s-3.33301 -9.66602 -6 -18.999z" />
    <glyph glyph-name="ograve" unicode="&#xf2;" horiz-adv-x="662" 
d="M331 530c86.667 0 159.833 -24.667 219.5 -74s89.5 -116 89.5 -200s-29.833 -150.5 -89.5 -199.5s-132.834 -73.5 -219.501 -73.5c-86 0 -159 24.5 -219 73.5s-90 115.5 -90 199.5s29.833 150.667 89.5 200s132.834 74 219.501 74zM330.999 372
c-36 0 -64.5 -11.167 -85.5 -33.5s-31.5 -49.833 -31.5 -82.5c0 -33.333 10.5 -60.833 31.5 -82.5s49.5 -32.5 85.5 -32.5s64.5 10.833 85.5 32.5s31.5 49.167 31.5 82.5c0 32.667 -10.5 60.167 -31.5 82.5s-49.5 33.5 -85.5 33.5zM179.999 740l111 80l141 -172l-81 -59z
" />
    <glyph glyph-name="oacute" unicode="&#xf3;" horiz-adv-x="662" 
d="M331 530c86.667 0 159.833 -24.667 219.5 -74s89.5 -116 89.5 -200s-29.833 -150.5 -89.5 -199.5s-132.834 -73.5 -219.501 -73.5c-86 0 -159 24.5 -219 73.5s-90 115.5 -90 199.5s29.833 150.667 89.5 200s132.834 74 219.501 74zM330.999 372
c-36 0 -64.5 -11.167 -85.5 -33.5s-31.5 -49.833 -31.5 -82.5c0 -33.333 10.5 -60.833 31.5 -82.5s49.5 -32.5 85.5 -32.5s64.5 10.833 85.5 32.5s31.5 49.167 31.5 82.5c0 32.667 -10.5 60.167 -31.5 82.5s-49.5 33.5 -85.5 33.5zM481.999 740l-171 -151l-81 59l141 172z
" />
    <glyph glyph-name="ocircumflex" unicode="&#xf4;" horiz-adv-x="662" 
d="M331 530c86.667 0 159.833 -24.667 219.5 -74s89.5 -116 89.5 -200s-29.833 -150.5 -89.5 -199.5s-132.834 -73.5 -219.501 -73.5c-86 0 -159 24.5 -219 73.5s-90 115.5 -90 199.5s29.833 150.667 89.5 200s132.834 74 219.501 74zM330.999 372
c-36 0 -64.5 -11.167 -85.5 -33.5s-31.5 -49.833 -31.5 -82.5c0 -33.333 10.5 -60.833 31.5 -82.5s49.5 -32.5 85.5 -32.5s64.5 10.833 85.5 32.5s31.5 49.167 31.5 82.5c0 32.667 -10.5 60.167 -31.5 82.5s-49.5 33.5 -85.5 33.5zM110.999 665l218 164l221 -164l-77 -84
l-144 111l-144 -111z" />
    <glyph glyph-name="otilde" unicode="&#xf5;" horiz-adv-x="662" 
d="M331 530c86.667 0 159.833 -24.667 219.5 -74s89.5 -116 89.5 -200s-29.833 -150.5 -89.5 -199.5s-132.834 -73.5 -219.501 -73.5c-86 0 -159 24.5 -219 73.5s-90 115.5 -90 199.5s29.833 150.667 89.5 200s132.834 74 219.501 74zM330.999 372
c-36 0 -64.5 -11.167 -85.5 -33.5s-31.5 -49.833 -31.5 -82.5c0 -33.333 10.5 -60.833 31.5 -82.5s49.5 -32.5 85.5 -32.5s64.5 10.833 85.5 32.5s31.5 49.167 31.5 82.5c0 32.667 -10.5 60.167 -31.5 82.5s-49.5 33.5 -85.5 33.5zM214.999 616l-82.001 -0.00390625l-1 11
c0 34.667 7.33301 64.334 22 89.001c22 37.333 51.667 56 89 56c18 0 46.5 -5.66699 85.5 -17s64.833 -17 77.5 -17c11.333 0 19.666 2.83301 24.999 8.5s10.333 14.834 15 27.501h85c-3.33301 -41.333 -16 -78 -38 -110s-52.667 -48 -92 -48
c-17.333 0 -43.166 6.16699 -77.499 18.5s-59.166 18.5 -74.499 18.5c-7.33301 0 -13.5 -2.16699 -18.5 -6.5s-8.16699 -8.16602 -9.5 -11.499s-3.33301 -9.66602 -6 -18.999z" />
    <glyph glyph-name="odieresis" unicode="&#xf6;" horiz-adv-x="662" 
d="M331 530c86.667 0 159.833 -24.667 219.5 -74s89.5 -116 89.5 -200s-29.833 -150.5 -89.5 -199.5s-132.834 -73.5 -219.501 -73.5c-86 0 -159 24.5 -219 73.5s-90 115.5 -90 199.5s29.833 150.667 89.5 200s132.834 74 219.501 74zM330.999 372
c-36 0 -64.5 -11.167 -85.5 -33.5s-31.5 -49.833 -31.5 -82.5c0 -33.333 10.5 -60.833 31.5 -82.5s49.5 -32.5 85.5 -32.5s64.5 10.833 85.5 32.5s31.5 49.167 31.5 82.5c0 32.667 -10.5 60.167 -31.5 82.5s-49.5 33.5 -85.5 33.5zM202.999 800
c27.333 0 50.5 -9.66699 69.5 -29s28.5 -42.333 28.5 -69c0 -27.333 -9.5 -50.5 -28.5 -69.5s-42.167 -28.5 -69.5 -28.5s-50.666 9.5 -69.999 28.5s-29 42.167 -29 69.5s9.66699 50.5 29 69.5s42.666 28.5 69.999 28.5zM458.999 800c27.333 0 50.5 -9.66699 69.5 -29
s28.5 -42.333 28.5 -69c0 -27.333 -9.5 -50.5 -28.5 -69.5s-42.167 -28.5 -69.5 -28.5s-50.666 9.5 -69.999 28.5s-29 42.167 -29 69.5s9.66699 50.5 29 69.5s42.666 28.5 69.999 28.5z" />
    <glyph glyph-name="divide" unicode="&#xf7;" 
d="M87 332h512v-150h-512v150zM343 127c20 0 37 -7 51 -21s21 -31 21 -51s-7 -37 -21 -51s-31 -21 -51 -21s-37 7 -51 21s-21 31 -21 51s7 37 21 51s31 21 51 21zM343 531c20 0 37 -7 51 -21s21 -31 21 -51s-7 -37 -21 -51s-31 -21 -51 -21s-37 7 -51 21s-21 31 -21 51
s7 37 21 51s31 21 51 21z" />
    <glyph glyph-name="oslash" unicode="&#xf8;" horiz-adv-x="662" 
d="M221 214l153 151c-14 4.66699 -28.333 7 -43 7c-36 0 -64.5 -11.167 -85.5 -33.5s-31.5 -49.833 -31.5 -82.5c0 -16.667 2.33301 -30.667 7 -42zM441 299l-153 -150.999c12 -4.66699 26.333 -7 43 -7c36 0 64.5 10.833 85.5 32.5s31.5 49.167 31.5 82.5
c0 15.333 -2.33301 29.666 -7 42.999zM21 16.001l65.999 65.002c-43.333 47.333 -65 105.666 -65 174.999c0 84 29.833 150.667 89.5 200s132.834 74 219.501 74c62.667 0 119 -13.333 169 -40l71 70l70 -62l-66 -66c43.333 -48.667 65 -107.334 65 -176.001
c0 -84 -29.833 -150.5 -89.5 -199.5s-132.834 -73.5 -219.501 -73.5c-63.333 0 -119.666 13.333 -168.999 40l-71 -70z" />
    <glyph glyph-name="ugrave" unicode="&#xf9;" horiz-adv-x="659" 
d="M57 513h182v-274c0 -36 6.5 -63.5 19.5 -82.5s36.833 -28.5 71.5 -28.5s58.5 9.5 71.5 28.5s19.5 46.5 19.5 82.5v274h182v-309c0 -147.333 -91 -221 -273 -221s-273 73.667 -273 221v309zM174 740l111 80l141 -172l-81 -59z" />
    <glyph glyph-name="uacute" unicode="&#xfa;" horiz-adv-x="659" 
d="M57 513h182v-274c0 -36 6.5 -63.5 19.5 -82.5s36.833 -28.5 71.5 -28.5s58.5 9.5 71.5 28.5s19.5 46.5 19.5 82.5v274h182v-309c0 -147.333 -91 -221 -273 -221s-273 73.667 -273 221v309zM486 740l-171 -151l-81 59l141 172z" />
    <glyph glyph-name="ucircumflex" unicode="&#xfb;" horiz-adv-x="659" 
d="M57 513h182v-274c0 -36 6.5 -63.5 19.5 -82.5s36.833 -28.5 71.5 -28.5s58.5 9.5 71.5 28.5s19.5 46.5 19.5 82.5v274h182v-309c0 -147.333 -91 -221 -273 -221s-273 73.667 -273 221v309zM110 665l218 164l221 -164l-77 -84l-144 111l-144 -111z" />
    <glyph glyph-name="udieresis" unicode="&#xfc;" horiz-adv-x="659" 
d="M57 513h182v-274c0 -36 6.5 -63.5 19.5 -82.5s36.833 -28.5 71.5 -28.5s58.5 9.5 71.5 28.5s19.5 46.5 19.5 82.5v274h182v-309c0 -147.333 -91 -221 -273 -221s-273 73.667 -273 221v309zM202 800c26.667 0 49.667 -9.66699 69 -29s29 -42.333 29 -69
c0 -27.333 -9.5 -50.5 -28.5 -69.5s-42.167 -28.5 -69.5 -28.5s-50.666 9.5 -69.999 28.5s-29 42.167 -29 69.5s9.66699 50.5 29 69.5s42.666 28.5 69.999 28.5zM458 800c26.667 0 49.667 -9.66699 69 -29s29 -42.333 29 -69c0 -27.333 -9.5 -50.5 -28.5 -69.5
s-42.167 -28.5 -69.5 -28.5s-50.666 9.5 -69.999 28.5s-29 42.167 -29 69.5s9.66699 50.5 29 69.5s42.666 28.5 69.999 28.5z" />
    <glyph glyph-name="yacute" unicode="&#xfd;" horiz-adv-x="654" 
d="M233 70l-248 443h210l137 -263l134 263h207l-411 -769h-204zM493 740l-171 -151l-81 59l141 172z" />
    <glyph glyph-name="thorn" unicode="&#xfe;" horiz-adv-x="682" 
d="M236 830v-375.001h2c16 24.667 38 43.334 66 56.001s57.667 19 89 19c74.667 0 136.5 -27 185.5 -81s73.5 -118.667 73.5 -194s-24.167 -139.5 -72.5 -192.5s-109.833 -79.5 -184.5 -79.5c-68 0 -121 22 -159 66v-305h-182v1086h182zM347 371.999
c-36 0 -64.5 -11.167 -85.5 -33.5s-31.5 -49.833 -31.5 -82.5c0 -33.333 10.5 -60.833 31.5 -82.5s49.5 -32.5 85.5 -32.5s64.5 10.833 85.5 32.5s31.5 49.167 31.5 82.5c0 32.667 -10.5 60.167 -31.5 82.5s-49.5 33.5 -85.5 33.5z" />
    <glyph glyph-name="ydieresis" unicode="&#xff;" horiz-adv-x="654" 
d="M233 70l-248 443h210l137 -263l134 263h207l-411 -769h-204zM214 800c26.667 0 49.667 -9.66699 69 -29s29 -42.333 29 -69c0 -27.333 -9.5 -50.5 -28.5 -69.5s-42.167 -28.5 -69.5 -28.5s-50.666 9.5 -69.999 28.5s-29 42.167 -29 69.5s9.66699 50.5 29 69.5
s42.666 28.5 69.999 28.5zM470 800c26.667 0 49.667 -9.66699 69 -29s29 -42.333 29 -69c0 -27.333 -9.5 -50.5 -28.5 -69.5s-42.167 -28.5 -69.5 -28.5s-50.666 9.5 -69.999 28.5s-29 42.167 -29 69.5s9.66699 50.5 29 69.5s42.666 28.5 69.999 28.5z" />
    <glyph glyph-name="dotlessi" unicode="&#x131;" horiz-adv-x="302" 
d="M242 513v-513h-182v513h182z" />
    <glyph glyph-name="Lslash" unicode="&#x141;" horiz-adv-x="533" 
d="M19 233v142l83 53v326h196v-200l113 72v-146l-113 -71v-243h235v-166h-431v285z" />
    <glyph glyph-name="lslash" unicode="&#x142;" horiz-adv-x="366" 
d="M92 0v331l-84 -51v124l84 52v374h182v-266l84 51v-125l-84 -51v-439h-182z" />
    <glyph glyph-name="OE" unicode="&#x152;" horiz-adv-x="1140" 
d="M660 0v82.998c-66 -72 -146 -108 -240 -108c-70.667 0 -136.334 18.5 -197.001 55.5s-108.667 86.333 -144 148s-53 127.834 -53 198.501s17.667 136.834 53 198.501s83.333 111 144 148s126.334 55.5 197.001 55.5c97.333 0 177.333 -31.333 240 -94v69h424v-166h-229
v-126h213v-166h-213v-130h229v-166h-424zM441 588.998c-58 0 -107.666 -20.667 -148.999 -62s-62 -91.333 -62 -150c0 -58 20.667 -107.833 62 -149.5s91 -62.5 149 -62.5s107.5 20.833 148.5 62.5s61.5 91.5 61.5 149.5c0 58.667 -20.333 108.667 -61 150
s-90.334 62 -149.001 62z" />
    <glyph glyph-name="oe" unicode="&#x153;" horiz-adv-x="1022" 
d="M618 331h210.999c-4.66699 24 -16.667 43.5 -36 58.5s-41.666 22.5 -66.999 22.5c-27.333 0 -50.833 -7 -70.5 -21s-32.167 -34 -37.5 -60zM329.999 372c-32 0 -59.5 -11.5 -82.5 -34.5s-34.5 -50.167 -34.5 -81.5c0 -32 11.5 -59.167 34.5 -81.5s50.5 -33.5 82.5 -33.5
s59.5 11.167 82.5 33.5s34.5 49.5 34.5 81.5c0 31.333 -11.5 58.5 -34.5 81.5s-50.5 34.5 -82.5 34.5zM1001 245v-18.999h-383c0 -76 38 -114 114 -114c39.333 0 68.333 15.667 87 47h175c-13.333 -56.667 -45.666 -101 -96.999 -133
c-46.667 -28.667 -101.334 -43 -164.001 -43c-96.667 0 -166 29.667 -208 89c-29.333 -32.667 -60 -55.667 -92 -69s-70.667 -20 -116 -20c-86.667 0 -157.667 24.167 -213 72.5s-83 115.166 -83 200.499c0 84 27.667 150.667 83 200s125.666 74 210.999 74
c44.667 0 83.334 -5.66699 116.001 -17s64 -31.333 94 -60c39.333 51.333 104.333 77 195 77c88.667 0 157.667 -25.5 207 -76.5s74 -120.5 74 -208.5z" />
    <glyph glyph-name="Scaron" unicode="&#x160;" horiz-adv-x="616" 
d="M556 712l-77.999 -152.002c-40 33.333 -83.333 50 -130 50c-20.667 0 -39.834 -5.66699 -57.501 -17s-26.5 -26.666 -26.5 -45.999c0 -13.333 5.5 -25.333 16.5 -36s21.333 -18 31 -22s22.834 -8.66699 39.501 -14l50 -15c58.667 -17.333 104.334 -41.833 137.001 -73.5
s49 -75.834 49 -132.501c0 -91.333 -26 -159 -78 -203c-56 -47.333 -127.333 -71 -214 -71c-94.667 0 -183 28.667 -265 86l84 158c59.333 -52 117.333 -78 174 -78c25.333 0 47.5 6.5 66.5 19.5s28.5 31.833 28.5 56.5c0 34.667 -37.667 62.667 -113 84
c-2.66699 0.666992 -4.66699 1.33398 -6 2.00098c-36 10 -64.333 19.333 -85 28s-41.334 20.834 -62.001 36.501s-35.334 35.5 -44.001 59.5s-13 53.667 -13 89c0 76 24.333 137.167 73 183.5s111 69.5 187 69.5c38 0 78.5 -5.66699 121.5 -17s81.167 -26.333 114.5 -45z
M88.001 954.998l74 85l144 -112l144 112l77 -85l-221 -163z" />
    <glyph glyph-name="scaron" unicode="&#x161;" horiz-adv-x="513" 
d="M460 497l-60.9971 -116c-31.333 16.667 -64 25 -98 25c-13.333 0 -26.166 -3 -38.499 -9s-18.5 -14.667 -18.5 -26c0 -4.66699 1 -9 3 -13s5 -7.5 9 -10.5s8 -5.5 12 -7.5s9.16699 -3.83301 15.5 -5.5s11.333 -2.83398 15 -3.50098s8.66699 -1.5 15 -2.5
s10.5 -1.83301 12.5 -2.5c99.333 -20 149 -70.667 149 -152c0 -62.667 -23.833 -110.167 -71.5 -142.5s-104.5 -48.5 -170.5 -48.5c-74 0 -143 19.667 -207 59l66 127c20 -14 43.667 -26.167 71 -36.5s51.666 -15.5 72.999 -15.5c14 0 27 3.33301 39 10s18 16.334 18 29.001
c0 7.33301 -1.83301 13.833 -5.5 19.5s-9.83398 10.334 -18.501 14.001s-16.834 6.5 -24.501 8.5s-18.5 4.5 -32.5 7.5s-25 5.5 -33 7.5c-34.667 9.33301 -62.334 23.833 -83.001 43.5s-31 50.167 -31 91.5c0 40 11.333 74.167 34 102.5s50.5 48.666 83.5 60.999
s69.167 18.5 108.5 18.5c64 0 120.333 -11 169 -33zM37.0029 744l74 85l144 -112l144 112l77 -85l-221 -163z" />
    <glyph glyph-name="Ydieresis" unicode="&#x178;" horiz-adv-x="714" 
d="M259 362l-278 392h235l141 -205l141 205h235l-278 -392v-362h-196v362zM239 1011c27.333 0 50.5 -9.5 69.5 -28.5s28.5 -42.167 28.5 -69.5s-9.5 -50.5 -28.5 -69.5s-42.167 -28.5 -69.5 -28.5s-50.666 9.5 -69.999 28.5s-29 42.167 -29 69.5s9.66699 50.5 29 69.5
s42.666 28.5 69.999 28.5zM495 1011c27.333 0 50.5 -9.5 69.5 -28.5s28.5 -42.167 28.5 -69.5s-9.5 -50.5 -28.5 -69.5s-42.167 -28.5 -69.5 -28.5s-50.666 9.5 -69.999 28.5s-29 42.167 -29 69.5s9.66699 50.5 29 69.5s42.666 28.5 69.999 28.5z" />
    <glyph glyph-name="Zcaron" unicode="&#x17d;" horiz-adv-x="707" 
d="M341 166h316v-166h-646l357 588h-296v166h624zM144 955l74 85l144 -112l144 112l77 -85l-221 -163z" />
    <glyph glyph-name="zcaron" unicode="&#x17e;" horiz-adv-x="559" 
d="M312 151h216v-151h-520l241 362h-209v151h512zM60 744l74 85l144 -112l144 112l77 -85l-221 -163z" />
    <glyph glyph-name="florin" unicode="&#x192;" 
d="M471 505h110.001l-13 -76h-110l-51 -279c-9.33301 -53.333 -19.833 -98 -31.5 -134s-29.5 -69.667 -53.5 -101c-56 -72 -130 -104 -222 -96l-106 9l30 165c34.667 -6 58.334 -9 71.001 -9c26.667 0 47.834 5.16699 63.501 15.5s28.834 27.833 39.501 52.5
c9.33301 24 20.666 72 33.999 144l42 233h-86l12 76h88l20 108c6.66699 34.667 14.167 63 22.5 85s21.5 43 39.5 63c41.333 46 95.333 69 162 69c53.333 0 96.666 -11.333 129.999 -34l-29 -157c-27.333 20 -53.333 30 -78 30c-16.667 0 -30.334 -5.83301 -41.001 -17.5
s-17.834 -24 -21.501 -37s-7.16699 -28.5 -10.5 -46.5c-0.666992 -3.33301 -1 -6 -1 -8z" />
    <glyph glyph-name="circumflex" unicode="&#x2c6;" horiz-adv-x="590" 
d="M75 665l218 164l221 -164l-77 -84l-144 111l-144 -111z" />
    <glyph glyph-name="caron" unicode="&#x2c7;" horiz-adv-x="590" 
d="M75 744l74 85l144 -112l144 112l77 -85l-221 -163z" />
    <glyph glyph-name="uni02C9" unicode="&#x2c9;" horiz-adv-x="603" 
d="M75 752h452v-107h-452v107z" />
    <glyph glyph-name="breve" unicode="&#x2d8;" horiz-adv-x="539" 
d="M75 784h112.002c3.33301 -21.333 12.333 -37.833 27 -49.5s33 -17.5 55 -17.5s40.5 5.83301 55.5 17.5s24.167 28.167 27.5 49.5h111c-2.66699 -53.333 -21.834 -94.833 -57.501 -124.5s-81.167 -44.5 -136.5 -44.5s-100.833 14.833 -136.5 44.5
s-54.834 71.167 -57.501 124.5z" />
    <glyph glyph-name="dotaccent" unicode="&#x2d9;" horiz-adv-x="402" 
d="M202 800c26.667 0 49.667 -9.66699 69 -29s29 -42.333 29 -69c0 -27.333 -9.5 -50.5 -28.5 -69.5s-42.167 -28.5 -69.5 -28.5s-50.666 9.5 -69.999 28.5s-29 42.167 -29 69.5s9.66699 50.5 29 69.5s42.666 28.5 69.999 28.5z" />
    <glyph glyph-name="ring" unicode="&#x2da;" horiz-adv-x="457" 
d="M227 815c43.333 0 80 -9.16699 110 -27.5s45 -47.5 45 -87.5c0 -39.333 -14.833 -68.333 -44.5 -87s-65.5 -28 -107.5 -28c-42.667 0 -79.167 9 -109.5 27s-45.5 47 -45.5 87s14.667 69.333 44 88s65.333 28 108 28zM229 743c-16 0 -29.833 -3.5 -41.5 -10.5
s-17.5 -17.833 -17.5 -32.5s5.83301 -25.5 17.5 -32.5s25.5 -10.5 41.5 -10.5c15.333 0 28.833 3.5 40.5 10.5s17.5 17.833 17.5 32.5s-5.83301 25.5 -17.5 32.5s-25.167 10.5 -40.5 10.5z" />
    <glyph glyph-name="ogonek" unicode="&#x2db;" horiz-adv-x="350" 
d="M159 0l75 0.000976562v-2c-40 -22.667 -60 -47.334 -60 -74.001c0 -12.667 4.5 -23.5 13.5 -32.5s19.833 -13.5 32.5 -13.5c14.667 0 32.667 6.33301 54 19l-22 -92c-20.667 -12.667 -47.334 -19 -80.001 -19c-24.667 0 -47 8.33301 -67 25s-30 37 -30 61
c0 26 7.83301 50.167 23.5 72.5s35.834 40.833 60.501 55.5z" />
    <glyph glyph-name="tilde" unicode="&#x2dc;" horiz-adv-x="549" 
d="M158 616l-82.001 -0.00390625l-1 11c0 34.667 7.33301 64.334 22 89.001c22 37.333 51.667 56 89 56c18 0 46.5 -5.66699 85.5 -17s64.833 -17 77.5 -17c11.333 0 19.666 2.83301 24.999 8.5s10.333 14.834 15 27.501h85c-3.33301 -41.333 -16 -78 -38 -110
s-52.667 -48 -92 -48c-17.333 0 -43.166 6.16699 -77.499 18.5s-59.166 18.5 -74.499 18.5c-7.33301 0 -13.5 -2.16699 -18.5 -6.5s-8.16699 -8.16602 -9.5 -11.499s-3.33301 -9.66602 -6 -18.999z" />
    <glyph glyph-name="hungarumlaut" unicode="&#x2dd;" horiz-adv-x="539" 
d="M254 814l-50 -214h-93l14 214h129zM428 814l-50 -214h-93l14 214h129z" />
    <glyph glyph-name="uni03A9" unicode="&#x3a9;" horiz-adv-x="869" 
d="M204 137l0.000976562 4.00098c-40.667 33.333 -75.167 75.5 -103.5 126.5s-42.5 108.5 -42.5 172.5c0 98 35.167 182 105.5 252s161.5 105 273.5 105c58 0 111 -10.5 159 -31.5s87.167 -48.5 117.5 -82.5s53.666 -71.5 69.999 -112.5s24.5 -82.5 24.5 -124.5
c0 -65.333 -13.833 -123.833 -41.5 -175.5s-63.167 -94.834 -106.5 -129.501v-4h165v-137h-339v103c95.333 58 143 160.333 143 307c0.666992 70 -16.333 128.667 -51 176s-81.667 71 -141 71c-58.667 0 -106.5 -23.5 -143.5 -70.5s-55.5 -107.833 -55.5 -182.5
c0 -73.333 13.5 -136.333 40.5 -189s61.5 -90 103.5 -112v-103h-340v137h162z" />
    <glyph glyph-name="uni03BC" unicode="&#x3bc;" horiz-adv-x="659" 
d="M57 513l182 -0.000976562v-274c0 -36 6.5 -63.5 19.5 -82.5s36.833 -28.5 71.5 -28.5s58.5 9.5 71.5 28.5s19.5 46.5 19.5 82.5v274h182v-309c0 -41.333 -7.5 -77.166 -22.5 -107.499s-34.833 -53.333 -59.5 -69s-49.5 -27 -74.5 -34s-50.5 -10.5 -76.5 -10.5
c-53.333 0 -97 16.333 -131 49v-288h-182v769z" />
    <glyph glyph-name="pi" unicode="&#x3c0;" horiz-adv-x="743" 
d="M715 448h-80.0029v-272c0 -75.333 5 -134 15 -176h-173c-13.333 21.333 -20 77 -20 167v281h-148c-2 -67.333 -9.66699 -146.166 -23 -236.499s-29.333 -160.833 -48 -211.5h-173c18.667 63.333 34.834 139.166 48.501 227.499s20.834 161.833 21.501 220.5
c-53.333 0 -91.666 -3.33301 -114.999 -10l-18 112c32.667 27.333 102 41 208 41h519z" />
    <glyph glyph-name="uni2010" unicode="&#x2010;" horiz-adv-x="392" 
d="M53 396h286v-150h-286v150z" />
    <glyph glyph-name="endash" unicode="&#x2013;" horiz-adv-x="500" 
d="M0 396h500v-150h-500v150z" />
    <glyph glyph-name="emdash" unicode="&#x2014;" horiz-adv-x="1000" 
d="M130 396h740v-150h-740v150z" />
    <glyph glyph-name="quoteleft" unicode="&#x2018;" horiz-adv-x="372" 
d="M189 423h-170l184 331h116z" />
    <glyph glyph-name="quoteright" unicode="&#x2019;" horiz-adv-x="372" 
d="M183 754h170l-184 -331h-116z" />
    <glyph glyph-name="quotesinglbase" unicode="&#x201a;" horiz-adv-x="338" 
d="M149 191h170l-184 -331h-116z" />
    <glyph glyph-name="quotedblleft" unicode="&#x201c;" horiz-adv-x="628" 
d="M445 423h-170l184 331h116zM189 423h-170l184 331h116z" />
    <glyph glyph-name="quotedblright" unicode="&#x201d;" horiz-adv-x="628" 
d="M183 754h170l-184 -331h-116zM439 754h170l-184 -331h-116z" />
    <glyph glyph-name="quotedblbase" unicode="&#x201e;" horiz-adv-x="594" 
d="M149 191h170l-184 -331h-116zM405 191h170l-184 -331h-116z" />
    <glyph glyph-name="dagger" unicode="&#x2020;" 
d="M260 754h166v-205h177v-144h-177v-585h-166v585h-176v144h176v205z" />
    <glyph glyph-name="daggerdbl" unicode="&#x2021;" 
d="M261 754h166v-185h176v-144h-176v-142h176v-144h-176v-318h-166v318h-177v144h177v142h-177v144h177v185z" />
    <glyph glyph-name="bullet" unicode="&#x2022;" 
d="M344 566c53.333 0 98 -18.333 134 -55s54 -81.334 54 -134.001c0 -52 -18 -96.333 -54 -133s-80.667 -55 -134 -55s-98.166 18.333 -134.499 55s-54.5 81 -54.5 133c0 52.667 18.167 97.334 54.5 134.001s81.166 55 134.499 55z" />
    <glyph glyph-name="ellipsis" unicode="&#x2026;" horiz-adv-x="1000" 
d="M500 214c32.667 0 60.334 -11.333 83.001 -34s34 -50.334 34 -83.001c0 -32 -11.333 -59.5 -34 -82.5s-50.334 -34.5 -83.001 -34.5s-60.334 11.5 -83.001 34.5s-34 50.5 -34 82.5c0 32.667 11.333 60.334 34 83.001s50.334 34 83.001 34zM833 214
c32.667 0 60.334 -11.333 83.001 -34s34 -50.334 34 -83.001c0 -32 -11.333 -59.5 -34 -82.5s-50.334 -34.5 -83.001 -34.5s-60.334 11.5 -83.001 34.5s-34 50.5 -34 82.5c0 32.667 11.333 60.334 34 83.001s50.334 34 83.001 34zM167 214
c32.667 0 60.334 -11.333 83.001 -34s34 -50.334 34 -83.001c0 -32 -11.333 -59.5 -34 -82.5s-50.334 -34.5 -83.001 -34.5s-60.334 11.5 -83.001 34.5s-34 50.5 -34 82.5c0 32.667 11.333 60.334 34 83.001s50.334 34 83.001 34z" />
    <glyph glyph-name="perthousand" unicode="&#x2030;" horiz-adv-x="1460" 
d="M225 764c58.667 0 107.667 -16.167 147 -48.5s59 -77.166 59 -134.499c0 -58.667 -19.333 -104.334 -58 -137.001s-88 -49 -148 -49s-109.333 16.333 -148 49s-58 78.334 -58 137.001c0 57.333 19.667 102.166 59 134.499s88.333 48.5 147 48.5zM225 664
c-23.333 0 -43.333 -8.33301 -60 -25s-25 -36.667 -25 -60s8.33301 -43.166 25 -59.499s36.667 -24.5 60 -24.5s43.333 8.16699 60 24.5s25 36.166 25 59.499s-8.33301 43.333 -25 60s-36.667 25 -60 25zM750 359c58.667 0 107.667 -16.167 147 -48.5
s59 -77.166 59 -134.499c0 -58.667 -19.333 -104.334 -58 -137.001s-88 -49 -148 -49s-109.333 16.333 -148 49s-58 78.334 -58 137.001c0 57.333 19.667 102.166 59 134.499s88.333 48.5 147 48.5zM750 259c-23.333 0 -43.333 -8.33301 -60 -25s-25 -36.667 -25 -60
s8.33301 -43.166 25 -59.499s36.667 -24.5 60 -24.5s43.333 8.16699 60 24.5s25 36.166 25 59.499s-8.33301 43.333 -25 60s-36.667 25 -60 25zM1235 359c58.667 0 107.667 -16.167 147 -48.5s59 -77.166 59 -134.499c0 -58.667 -19.333 -104.334 -58 -137.001
s-88 -49 -148 -49s-109.333 16.333 -148 49s-58 78.334 -58 137.001c0 57.333 19.667 102.166 59 134.499s88.333 48.5 147 48.5zM1235 259c-23.333 0 -43.333 -8.33301 -60 -25s-25 -36.667 -25 -60s8.33301 -43.166 25 -59.499s36.667 -24.5 60 -24.5
s43.333 8.16699 60 24.5s25 36.166 25 59.499s-8.33301 43.333 -25 60s-36.667 25 -60 25zM657 754h98l-438 -754h-98z" />
    <glyph glyph-name="guilsinglleft" unicode="&#x2039;" horiz-adv-x="354" 
d="M172 320l129 -174l-103 -72l-172 246l172 246l100 -69z" />
    <glyph glyph-name="guilsinglright" unicode="&#x203a;" horiz-adv-x="354" 
d="M53 146l129 174l-126 177l100 69l172 -246l-172 -246z" />
    <glyph glyph-name="fraction" unicode="&#x2044;" horiz-adv-x="194" 
d="M267 754h98l-438 -754h-98z" />
    <glyph glyph-name="Euro" unicode="&#x20ac;" 
d="M628 740l0.000976562 -157c-34 34 -86.667 51 -158 51c-96 0 -152.333 -43 -169 -129h286l-38 -102h-261c0 -2 -0.166992 -6.33301 -0.5 -13s-0.5 -11.667 -0.5 -15c0 -10.667 0.666992 -22 2 -34h236l-38 -102h-183c16.667 -80.667 72 -121 166 -121
c70 0 122.667 16.333 158 49v-157c-40.667 -26 -103 -39 -187 -39c-186 0 -295 89.333 -327 268h-95l38 102h47c-0.666992 6 -1 17 -1 33c0 13.333 0.333008 23 1 29h-85l38 102h56c35.333 185.333 144.666 278 327.999 278c42 0 79.667 -4.5 113 -13.5s58 -18.833 74 -29.5
z" />
    <glyph glyph-name="afii61289" unicode="&#x2113;" horiz-adv-x="643" 
d="M549 214l70.998 -73c-60.667 -112 -149.667 -168 -267 -168c-65.333 0 -116.166 15.667 -152.499 47s-59.5 73.666 -69.5 126.999c-0.666992 2 -1 5.33301 -1 10l-29.5 -21l-29.5 -21l-44 90c6.66699 5.33301 22 16.833 46 34.5s42 31.5 54 41.5v263
c0 100 20.667 175.333 62 226s96.333 76 165 76c60 0 105.333 -19.5 136 -58.5s46 -88.833 46 -149.5c0 -63.333 -20 -125.833 -60 -187.5s-99.667 -127.5 -179 -197.5l1 -41c1.33301 -30.667 11 -55 29 -73s41 -27 69 -27c28.667 0 56.334 9.83301 83.001 29.5
s50 43.834 70 72.501zM296.998 560v-154c38 41.333 68.167 82.833 90.5 124.5s33.5 79.167 33.5 112.5c0 56 -19 84 -57 84c-44.667 0 -67 -55.667 -67 -167z" />
    <glyph glyph-name="trademark" unicode="&#x2122;" horiz-adv-x="940" 
d="M899 754v-404h-88v326h-2l-117 -326h-52l-117 326h-2v-326h-88v404h142l91 -239l91 239h142zM384 754v-78h-123v-326h-97v326h-123v78h343z" />
    <glyph glyph-name="Omega" unicode="&#x2126;" horiz-adv-x="869" 
d="M204 137l0.000976562 4.00098c-40.667 33.333 -75.167 75.5 -103.5 126.5s-42.5 108.5 -42.5 172.5c0 98 35.167 182 105.5 252s161.5 105 273.5 105c58 0 111 -10.5 159 -31.5s87.167 -48.5 117.5 -82.5s53.666 -71.5 69.999 -112.5s24.5 -82.5 24.5 -124.5
c0 -65.333 -13.833 -123.833 -41.5 -175.5s-63.167 -94.834 -106.5 -129.501v-4h165v-137h-339v103c95.333 58 143 160.333 143 307c0.666992 70 -16.333 128.667 -51 176s-81.667 71 -141 71c-58.667 0 -106.5 -23.5 -143.5 -70.5s-55.5 -107.833 -55.5 -182.5
c0 -73.333 13.5 -136.333 40.5 -189s61.5 -90 103.5 -112v-103h-340v137h162z" />
    <glyph glyph-name="estimated" unicode="&#x212e;" horiz-adv-x="981" 
d="M942 366h-731.999c-4 0 -6 -1.66699 -6 -5v-222c0 -8.66699 3.33301 -17 10 -25c77.333 -79.333 169.666 -119 276.999 -119c116 0 213 44.333 291 133h65c-40.667 -48 -92.5 -86.167 -155.5 -114.5s-130.167 -42.5 -201.5 -42.5c-124.667 0 -231.167 39.667 -319.5 119
s-132.5 175 -132.5 287c0 112.667 44.167 208.667 132.5 288s194.833 119 319.5 119s231.167 -39.667 319.5 -119s132.5 -175.333 132.5 -288v-11zM776.001 395v222c0 11.333 -3.66699 20.333 -11 27c-78 76.667 -169.333 115 -274 115c-106 0 -198 -39.667 -276 -119
c-7.33301 -7.33301 -11 -16.333 -11 -27v-218c0 -5.33301 2 -8 6 -8h561c3.33301 0 5 2.66699 5 8z" />
    <glyph glyph-name="partialdiff" unicode="&#x2202;" horiz-adv-x="707" 
d="M122 678l-49 124c63.333 45.333 141 68 233 68c98.667 0 181.167 -38.5 247.5 -115.5s99.5 -182.5 99.5 -316.5c0 -140 -31.833 -252.333 -95.5 -337s-149.167 -127 -256.5 -127c-42.667 0 -81.334 8.66699 -116.001 26s-62.167 39.666 -82.5 66.999
s-35.833 56.333 -46.5 87s-16 61 -16 91c0 88 24.833 159.333 74.5 214s112.5 82 188.5 82c43.333 0 80.333 -10 111 -30s52.334 -40.333 65.001 -61h1c0.666992 5.33301 1 16 1 32c0 66.667 -18.167 124.834 -54.5 174.501s-84.5 74.5 -144.5 74.5
c-58.667 0 -112 -17.667 -160 -53zM319 114l0.998047 -0.000976562c37.333 0 69 20.833 95 62.5s42.333 88.167 49 139.5c-6 20 -20.167 40 -42.5 60s-49.166 30 -80.499 30c-37.333 0 -67.833 -16.333 -91.5 -49s-35.5 -71.667 -35.5 -117
c0 -35.333 9.83301 -65.166 29.5 -89.499s44.834 -36.5 75.501 -36.5z" />
    <glyph glyph-name="uni2206" unicode="&#x2206;" horiz-adv-x="802" 
d="M28 0v94l270 707h212l262 -705v-96h-744zM214 137h364.001l-119 304c-4.66699 16.667 -14.834 48.334 -30.501 95.001s-25.834 78.667 -30.501 96h-4c-3.33301 -12.667 -12.166 -40.334 -26.499 -83.001s-24.5 -73.667 -30.5 -93z" />
    <glyph glyph-name="product" unicode="&#x220f;" horiz-adv-x="877" 
d="M850 631h-122v-739h-172v739h-236v-739h-172v739h-122v153h824v-153z" />
    <glyph glyph-name="summation" unicode="&#x2211;" horiz-adv-x="679" 
d="M660 -108h-634v105l279 340l-268 330v117h601v-145h-363v-4l228 -273l-255 -312v-4h412v-154z" />
    <glyph glyph-name="minus" unicode="&#x2212;" 
d="M87 332h512v-150h-512v150z" />
    <glyph glyph-name="uni2215" unicode="&#x2215;" horiz-adv-x="194" 
d="M267 754h98l-438 -754h-98z" />
    <glyph glyph-name="uni2219" unicode="&#x2219;" horiz-adv-x="343" 
d="M172 373c32.667 0 60.334 -11.333 83.001 -34s34 -50.334 34 -83.001c0 -32 -11.333 -59.5 -34 -82.5s-50.334 -34.5 -83.001 -34.5s-60.334 11.5 -83.001 34.5s-34 50.5 -34 82.5c0 32.667 11.333 60.334 34 83.001s50.334 34 83.001 34z" />
    <glyph glyph-name="radical" unicode="&#x221a;" horiz-adv-x="722" 
d="M742 941l-275.999 -1099h-137l-178 482l-88 -35l-28 91l218 89l119 -345l14 -53c6 -22.667 10 -38.334 12 -47.001l2 -1c1.33301 5.33301 3.16602 15 5.49902 29l7 41c2.33301 13.333 4.83301 26.333 7.5 39l200 809h122z" />
    <glyph glyph-name="infinity" unicode="&#x221e;" horiz-adv-x="907" 
d="M852 324v-0.999023c0 -62 -19 -111.833 -57 -149.5s-82.667 -56.5 -134 -56.5c-76 0 -145 43 -207 129c-34 -42.667 -67.167 -74.834 -99.5 -96.501s-70.166 -32.5 -113.499 -32.5c-50.667 0 -94.5 18.667 -131.5 56s-55.5 85.333 -55.5 144c0 60 18.667 109 56 147
s84.333 57 141 57c41.333 0 78.5 -10.5 111.5 -31.5s65.167 -52.167 96.5 -93.5c36 40.667 63 67.667 81 81c39.333 29.333 81.666 44 126.999 44c52.667 -0.666992 96.667 -19 132 -55s53 -83.333 53 -142zM252 207.001h2c27.333 0 52.5 9.33301 75.5 28
s47.833 44.667 74.5 78c-16 22.667 -27.5 38.5 -34.5 47.5s-17.5 20.5 -31.5 34.5s-28 23.667 -42 29s-29.667 8 -47 8c-30.667 0 -55.5 -10.667 -74.5 -32s-28.5 -49.333 -28.5 -84c0 -30 10.167 -55.667 30.5 -77s45.5 -32 75.5 -32zM658 432.001l-2 0.000976562
c-9.33301 0 -18.333 -1.16699 -27 -3.5s-17.5 -6.33301 -26.5 -12l-22.5 -14c-6 -3.66699 -13.667 -10.5 -23 -20.5s-15.333 -16.667 -18 -20l-18.5 -22.5c-9.66699 -11.667 -14.834 -17.834 -15.501 -18.501c34 -44 62 -74 84 -90s46.667 -24 74 -24
c28.667 0 51.834 11.5 69.501 34.5s26.5 47.833 26.5 74.5c0 33.333 -9.33301 61 -28 83s-43 33 -73 33z" />
    <glyph glyph-name="integral" unicode="&#x222b;" horiz-adv-x="476" 
d="M454 961l-16.998 -114.001c-14.667 6 -29 9 -43 9c-26.667 0 -46.667 -10 -60 -30c-19.333 -25.333 -29 -86.333 -29 -183c0 -60 3 -145.333 9 -256s9 -201.334 9 -272.001c0 -97.333 -13.333 -171.666 -40 -222.999c-16.667 -31.333 -39.834 -54.5 -69.501 -69.5
s-61.5 -22.5 -95.5 -22.5c-40 0 -72.667 6.33301 -98 19l20 118c19.333 -7.33301 36.666 -11 51.999 -11c23.333 0 41 7.33301 53 22c20.667 26.667 31 82.334 31 167.001c0 71.333 -3.16699 164 -9.5 278s-9.5 203 -9.5 267c0 66 5.83301 119 17.5 159
s30.5 73.667 56.5 101c34 36 83 54 147 54c30.667 0 56 -4.33301 76 -13z" />
    <glyph glyph-name="approxequal" unicode="&#x2248;" horiz-adv-x="654" 
d="M551 523l59.998 -58.002c-22 -37.333 -47.333 -66.666 -76 -87.999s-58.667 -32 -90 -32c-38.667 0 -83 15 -133 45c-15.333 9.33301 -26.5 15.833 -33.5 19.5s-16.833 7.66699 -29.5 12s-25 6.5 -37 6.5c-16 0 -31.333 -4.5 -46 -13.5s-26 -18 -34 -27
s-18.667 -22.5 -32 -40.5l-60 57c18 34.667 43.333 63.334 76 86.001s67 34 103 34s77 -13.333 123 -40c38.667 -23.333 65.334 -36.666 80.001 -39.999c6.66699 -1.33301 13.667 -2 21 -2c20.667 0 39.334 6.66699 56.001 20s34 33.666 52 60.999zM550.998 299.998
l60.0039 -58.0039c-47.333 -80 -103.333 -120 -168 -120c-22 0 -42.333 3.5 -61 10.5s-42 18.5 -70 34.5c-42 25.333 -75 38 -99 38c-16.667 0 -32.334 -4.5 -47.001 -13.5s-25.834 -18 -33.501 -27s-18.5 -22.833 -32.5 -41.5l-60 58c18 34.667 43.333 63.334 76 86.001
s67 34 103 34c17.333 0 34.666 -2.66699 51.999 -8s29.166 -9.66602 35.499 -12.999l34.5 -19c2.66699 -1.33301 10.667 -6.16602 24 -14.499s22.333 -13.666 27 -15.999s12 -5 22 -8s19.333 -4.5 28 -4.5c21.333 0 39.833 6.5 55.5 19.5s33.5 33.833 53.5 62.5z" />
    <glyph glyph-name="notequal" unicode="&#x2260;" horiz-adv-x="654" 
d="M486 587l-43 -97h155v-97h-193l-66 -150h259v-96h-297l-58 -132l-77 32l44 100h-154v96h193l65 150h-258v97h296l57 129z" />
    <glyph glyph-name="lessequal" unicode="&#x2264;" horiz-adv-x="654" 
d="M596 119l-535 255v104l534 254v-110l-436 -195v-2l437 -196v-110zM599 -21h-542v99h542v-99z" />
    <glyph glyph-name="greaterequal" unicode="&#x2265;" horiz-adv-x="654" 
d="M62 732l535 -254v-105l-534 -254v110l436 196v3l-437 194v110zM596 -21h-538v99h538v-99z" />
    <glyph glyph-name="lozenge" unicode="&#x25ca;" horiz-adv-x="722" 
d="M666 391l-240 -448h-136l-234 448l239 449h137zM514 387l-129.002 256c-11.333 29.333 -18.666 50.666 -21.999 63.999h-4c-3.33301 -13.333 -10.666 -34.666 -21.999 -63.999l-129 -249l130 -260c10 -25.333 16.667 -45.333 20 -60h5c6 25.333 12.667 45 20 59z" />
    <glyph glyph-name="fi" unicode="&#xfb01;" horiz-adv-x="679" 
d="M254 363v-363.001h-182v363h-64v150h64v65c0 42.667 3 76.834 9 102.501s20.333 51.5 43 77.5c46.667 54.667 106.334 82 179.001 82c28.667 0 54.667 -6 78 -18v-157c-26.667 11.333 -48 17 -64 17c-22.667 0 -38.834 -6.83301 -48.501 -20.5s-14.5 -35.5 -14.5 -65.5
v-83h127v-150h-127zM619 512.999v-513h-182v513h182zM528 811.999c28 0 52 -10 72 -30s30 -44 30 -72s-10 -52 -30 -72s-44 -30 -72 -30s-52 10 -72 30s-30 44 -30 72s10 52 30 72s44 30 72 30z" />
    <glyph glyph-name="fl" unicode="&#xfb02;" horiz-adv-x="690" 
d="M630 830v-830h-182v830h182zM254 363v-363.001h-182v363h-64v150h64v65c0 42.667 3 76.834 9 102.501s20.333 51.5 43 77.5c46.667 54.667 106.334 82 179.001 82c28.667 0 54.667 -6 78 -18v-157c-26.667 11.333 -48 17 -64 17
c-22.667 0 -38.834 -6.83301 -48.501 -20.5s-14.5 -35.5 -14.5 -65.5v-83h127v-150h-127z" />
    <glyph glyph-name=".null" horiz-adv-x="0" 
 />
    <glyph glyph-name="nonmarkingreturn" horiz-adv-x="333" 
 />
    <glyph glyph-name="a.superior" horiz-adv-x="409" 
d="M209 540c21.333 0 39.333 6.83301 54 20.5s22 30.167 22 49.5s-7.33301 35.833 -22 49.5s-32.667 20.5 -54 20.5s-39.333 -6.83301 -54 -20.5s-22 -30.167 -22 -49.5s7.33301 -35.833 22 -49.5s32.667 -20.5 54 -20.5zM281 456v34h-2
c-19.333 -29.333 -52.666 -44 -99.999 -44c-48.667 0 -88.834 16 -120.501 48s-47.5 70.667 -47.5 116s15.667 84 47 116s71.333 48 120 48c44 0 78.333 -13.333 103 -40v30h118v-308h-118z" />
    <glyph glyph-name="o.superior" horiz-adv-x="410" 
d="M205 774c56 0 103.5 -14.667 142.5 -44s58.5 -69.333 58.5 -120s-19.5 -90.667 -58.5 -120s-86.5 -44 -142.5 -44s-103.333 14.667 -142 44s-58 69.333 -58 120s19.333 90.667 58 120s86 44 142 44zM205 679c-20.667 0 -38.332 -6.66699 -52.999 -20
s-22 -29.666 -22 -48.999s7.16699 -35.666 21.5 -48.999s32.166 -20 53.499 -20s39.333 6.66699 54 20s22 29.666 22 48.999s-7.5 35.666 -22.5 48.999s-32.833 20 -53.5 20z" />
    <glyph glyph-name="one.superior" horiz-adv-x="412" 
d="M163 667h-70v99h197v-452h-127v353z" />
    <glyph glyph-name="two.superior" horiz-adv-x="412" 
d="M313 479l-75.998 -66.002h160v-99h-394l201 201c37.333 37.333 56 74.333 56 111c0 14.667 -5.33301 28 -16 40s-24 18 -40 18c-16.667 0 -29.834 -5.16699 -39.501 -15.5s-14.5 -23.5 -14.5 -39.5c0 -3.33301 0.666992 -9.66602 2 -18.999h-140
c2 52.667 20 94.834 54 126.501s79.667 47.5 137 47.5c53.333 0 98.166 -14.833 134.499 -44.5s54.5 -68.5 54.5 -116.5c0 -30.667 -6.33301 -56.667 -19 -78s-32.667 -43.333 -60 -66z" />
    <glyph glyph-name="three.superior" horiz-adv-x="412" 
d="M4 461h129.999c0 -18 6.33301 -33 19 -45s29 -18 49 -18s36.333 5.5 49 16.5s19 25.5 19 43.5c0 16.667 -6.66699 30.834 -20 42.501s-29 17.5 -47 17.5c-2.66699 0 -5.16699 -0.166992 -7.5 -0.5s-5 -0.833008 -8 -1.5s-5.5 -1 -7.5 -1v78h13
c16.667 0 30.167 4.5 40.5 13.5s15.5 21.167 15.5 36.5c0 13.333 -4.66699 24.166 -14 32.499s-21.333 12.5 -36 12.5c-15.333 0 -27.833 -5 -37.5 -15s-14.5 -22.333 -14.5 -37h-118c4.66699 46.667 23.334 83 56.001 109s74.667 39 126 39
c45.333 0 82.833 -11.667 112.5 -35s44.5 -55.333 44.5 -96c0 -44 -17.333 -75 -52 -93c24.667 -5.33301 44.167 -19.5 58.5 -42.5s21.5 -46.833 21.5 -71.5c0 -46.667 -18.667 -83.167 -56 -109.5s-82 -39.5 -134 -39.5c-61.333 0 -110 17 -146 51
c-16 14.667 -29.5 32.5 -40.5 53.5s-16.167 40.833 -15.5 59.5z" />
    </font>
</defs>
</svg>
